<svg width="79" height="21" viewBox="0 0 79 21" fill="none" xmlns="http://www.w3.org/2000/svg">
<path d="M61.2787 13.694C61.2978 13.6868 61.2476 13.6889 61.2551 13.6834C61.047 13.736 61.2092 13.7204 61.2787 13.694ZM76.7394 11.7459C76.6852 11.7412 76.6311 11.7366 76.577 11.7321C76.5471 11.7693 76.5915 11.8084 76.5454 11.8453C76.5377 11.8513 76.3836 11.8579 76.3783 11.8705C76.3731 11.883 76.581 11.8543 76.6055 11.8687C76.6323 11.8847 76.4977 11.9877 76.5047 12.0168C76.5321 12.1272 76.6632 12.2205 76.588 12.3396C76.4216 12.2435 76.2766 12.3744 76.3465 12.3964C76.3626 12.4015 76.751 12.3602 76.6642 12.4809C76.6089 12.5571 76.0474 12.547 76.3365 12.6345C76.7169 12.5108 76.6979 12.5991 76.7171 12.6677C76.7205 12.6793 76.6707 12.7822 76.6913 12.8226C76.6985 12.8364 76.9041 12.8415 76.911 12.8604C76.9156 12.8734 76.805 12.8924 76.8123 12.9115C76.8448 13.0016 76.8601 13.09 76.8286 13.1832C76.3008 13.167 76.6081 13.2398 76.5833 13.2459C76.4424 13.2768 76.3953 13.1833 76.3089 13.2275C76.3288 13.2795 76.3486 13.3312 76.3681 13.3822C76.4297 13.3349 76.8132 13.4121 76.6427 13.4414C77.106 13.4073 76.2529 13.7038 76.4092 13.7317C76.4423 13.7379 76.669 13.6753 76.5699 13.7995C76.5588 13.8127 76.4187 13.8144 76.432 13.8204C76.44 13.8239 76.8859 13.828 76.6413 13.8649C76.552 13.8782 76.2573 13.8311 76.3803 13.9577C76.831 13.886 76.6329 14.1323 76.5205 14.1784C76.581 14.1677 76.6416 14.157 76.7021 14.1463C76.5395 14.1947 76.6937 14.1973 76.6856 14.2073C76.6531 14.2475 76.4995 14.3061 76.5147 14.341C76.5321 14.3823 76.8138 14.3753 76.7054 14.4274C76.7673 14.4142 76.8292 14.4009 76.891 14.3876C76.8769 14.4222 76.8628 14.4568 76.8485 14.4915C76.4738 14.4206 76.8311 14.5089 76.8393 14.5153C76.8531 14.5252 76.7001 14.5138 76.7195 14.5304C76.7226 14.532 76.8664 14.5266 76.883 14.5525C76.9173 14.6059 76.7363 14.6007 76.7388 14.6233C76.7398 14.6253 76.8692 14.6157 76.9005 14.6546C76.9999 14.7786 76.8012 14.6554 76.7832 14.6511C76.7595 14.6453 76.2189 14.6962 76.409 14.5888C76.3485 14.6249 76.109 14.6325 76.1032 14.6366C76.0983 14.6401 76.1331 14.6997 76.1413 14.703C76.2231 14.7315 76.3865 14.703 76.4159 14.7083C76.4396 14.7129 76.2272 14.7887 76.7198 14.8007C76.266 14.8412 76.3071 14.7848 76.2364 14.7272C76.1431 14.72 76.0533 14.7853 76.0536 14.7887C76.0554 14.8714 76.4285 14.8215 76.6675 14.8373C76.7926 14.8457 76.538 14.8822 76.8727 14.8475C76.9087 14.9236 76.7142 14.8789 76.6855 14.8841C76.6434 14.8918 76.7396 14.9177 76.7268 14.9211C76.7079 14.9261 76.5918 14.91 76.5511 14.9295C76.5452 14.9327 76.745 14.9626 76.8401 14.9217C76.8121 14.9757 76.9822 14.9705 76.6393 14.9904C77.2884 15.0247 76.2559 15.0188 76.2196 15.0332C76.1238 15.0716 76.6333 15.0594 76.6581 15.0613C76.8174 15.0756 76.6424 15.1816 76.7157 15.2082C76.3488 15.197 76.7119 15.124 76.6406 15.1073C76.4037 15.0529 76.4572 15.1844 75.9961 15.1446C76.1227 15.161 76.2493 15.1777 76.3759 15.1946C76.0794 15.2243 75.9503 15.1808 76.0583 15.2626C76.3141 15.2771 76.0181 15.2048 76.2196 15.2198C76.3379 15.2285 76.3631 15.2764 76.4254 15.2776C76.5005 15.2789 76.4117 15.2353 76.5271 15.2425C76.7763 15.2586 76.5381 15.4162 76.4029 15.2946C76.4069 15.3282 75.9112 15.3421 76.0654 15.3715C76.1654 15.3913 76.8509 15.2909 76.7239 15.4487C76.4899 15.4496 76.6554 15.3847 76.6376 15.3827C76.6117 15.3801 76.0835 15.3875 76.0574 15.3893C75.9717 15.3952 76.2526 15.5583 75.9866 15.5883C76.0939 15.5853 76.1323 15.5995 76.1409 15.6199L76.1419 15.4802C76.1586 15.5013 76.0744 15.5384 76.1348 15.5438C76.1605 15.5459 76.3474 15.5361 76.3672 15.5385C76.4851 15.5527 76.1516 15.5986 76.1432 15.6189C76.1336 15.6417 76.295 15.6375 76.2947 15.6387C76.2858 15.6489 76.1763 15.6418 76.1766 15.648C76.1772 15.6575 76.1555 15.7222 76.1784 15.7256C76.1856 15.7265 76.3699 15.7136 76.405 15.7275C76.4111 15.7299 76.1924 15.7309 76.2874 15.7721C76.4017 15.8219 76.5589 15.7332 76.7882 15.7516C76.4625 15.7882 76.7856 15.7832 76.7604 15.7923C76.7512 15.7956 76.4768 15.8221 76.4945 15.8472C76.4497 15.8296 76.4048 15.8127 76.36 15.795C76.3121 15.8136 76.3722 15.8468 76.318 15.8626C76.2916 15.8702 76.0658 15.8676 76.0722 15.8834C76.0747 15.8868 76.6248 15.8914 76.3774 15.8541C76.5737 15.8479 76.4461 15.8693 76.5018 15.8776C76.5105 15.8789 76.8386 15.879 76.6349 15.8937C76.5848 15.8973 75.6275 15.8819 76.3213 15.9495C76.3437 15.9516 76.4633 15.9408 76.4882 15.9429C76.5051 15.9443 76.4569 15.9652 76.474 15.9671C76.4923 15.969 76.6229 15.9571 76.6487 15.9594C76.7816 15.9707 76.2631 15.998 76.3021 15.9688C76.2381 15.9794 76.1742 15.9901 76.1102 16.0009C76.5011 15.9837 76.2205 16.014 76.2328 16.0272C76.3114 16.1113 76.5646 16.0491 76.6964 16.0613C76.9082 16.0808 76.2387 16.0757 76.4404 16.107C76.4593 16.1099 76.7425 16.0619 76.5839 16.1479C76.5726 16.1359 76.5613 16.1239 76.5499 16.1119C76.1719 16.1265 76.5768 16.1556 76.5822 16.1583C76.6348 16.1899 76.498 16.1709 76.6938 16.2151C76.7113 16.219 76.6182 16.2305 76.665 16.2388C76.8576 16.273 76.7802 16.1855 76.9333 16.1799C77.0083 16.1771 76.9915 16.273 76.956 16.2772C76.7984 16.2948 76.8854 16.2353 76.6897 16.2507C76.6201 16.2563 76.7663 16.3902 76.6908 16.4198C76.6028 16.454 76.0906 16.4818 76.6666 16.467C76.1014 16.4908 76.4874 16.4888 76.4836 16.4929C76.4326 16.544 76.4269 16.5442 76.4822 16.5853C76.4942 16.5944 76.3229 16.6071 76.352 16.6096C76.3695 16.6111 76.553 16.6023 76.6099 16.6102C76.6878 16.6211 76.5012 16.7055 76.3999 16.7145C76.2986 16.7234 76.3549 16.6823 76.1883 16.6943C76.1723 16.7234 76.2144 16.7496 76.1977 16.7788C76.1902 16.7909 76.0733 16.7884 76.0711 16.7936C76.0698 16.7959 76.1739 16.834 76.2169 16.8309C76.3169 16.8236 76.2457 16.6986 76.4511 16.7259C76.4908 16.7312 76.2224 16.7621 76.5495 16.7485C76.4787 16.8639 76.4083 16.9794 76.3381 17.0942C76.0911 17.0384 76.3075 16.9575 76.2823 16.8903C76.2792 16.881 76.3097 16.8484 76.1445 16.8576C76.1035 16.9172 76.1921 16.9864 76.0862 17.0455C76.0827 17.0474 75.9339 17.046 75.9106 17.0535C75.8671 17.0677 76.1082 17.0996 76.0465 17.1086C76.0321 17.1103 75.8354 17.0943 75.7112 17.1057C75.3924 17.1353 76.1 17.1142 76.0922 17.13C76.0858 17.1422 75.7467 17.2349 75.9636 17.2465C76.1948 17.2588 76.0951 17.1826 76.2837 17.1816C76.4749 17.2283 76.275 17.2901 76.3006 17.339C76.3012 17.3399 76.4485 17.3263 76.4695 17.3365C76.5063 17.3545 76.2972 17.3682 76.2641 17.379C76.2289 17.3907 76.2603 17.4248 76.1842 17.433C76.1743 17.434 75.9663 17.4355 75.9605 17.4347C75.8742 17.4227 76.1435 17.4059 76.1469 17.4043C76.1569 17.3986 76.0534 17.3976 76.0594 17.3925C76.0693 17.384 76.1646 17.3756 76.1726 17.3646C76.1784 17.3569 75.9954 17.3716 76.0035 17.3641C76.0072 17.3611 76.4248 17.3164 75.9972 17.3309C75.8623 17.3357 75.699 17.5729 75.8079 17.5887C75.8584 17.5672 75.9089 17.546 75.9595 17.5243C75.8361 17.5693 76.1797 17.5994 75.6748 17.6264C75.6522 17.7207 75.6299 17.8125 75.6077 17.895C75.5958 17.9394 75.5839 17.98 75.5721 18.0189C75.5303 18.0402 75.2055 18.0531 75.3019 18.077C75.4047 18.062 75.5074 18.047 75.6101 18.0319C75.5387 18.0536 75.402 18.1281 75.4694 18.1301C75.4783 18.1305 75.7716 18.1095 75.7978 18.1194C75.8209 18.1277 75.6014 18.148 75.5599 18.1569C75.5255 18.1644 75.5834 18.1638 75.5714 18.1661C75.5618 18.1679 75.4276 18.1802 75.4044 18.1845C75.3327 18.198 75.71 18.1579 75.2768 18.2042C75.2601 18.2042 75.2434 18.2041 75.2267 18.2039C75.1647 18.2177 74.9689 18.2476 74.8705 18.2443C74.8536 18.2437 74.9835 18.2335 74.9832 18.2319C74.9525 18.1594 74.7056 18.2463 74.9092 18.2481C74.7175 18.2735 74.8371 18.2837 74.7991 18.286C74.7444 18.2928 74.5907 18.3068 74.4586 18.3253C74.4311 18.3333 74.539 18.3243 74.2841 18.355C74.2316 18.3622 74.286 18.3485 74.2781 18.3456C73.8725 18.402 74.4555 18.3368 74.4399 18.3338C74.3765 18.3409 74.0883 18.3815 74.0411 18.3867C74.0043 18.3872 74.2757 18.3543 74.3908 18.3351C74.4554 18.3239 74.1547 18.3498 74.5395 18.2867C74.5788 18.2692 74.3761 18.3093 74.3613 18.3104C74.3484 18.3122 74.4594 18.2692 74.3769 18.2754C74.3667 18.2764 74.1679 18.3161 74.1514 18.3182C74.1232 18.3217 74.1591 18.2938 74.1758 18.2897C74.1874 18.2867 74.3624 18.2572 74.4042 18.2467C74.4522 18.2335 74.4074 18.2231 74.4571 18.2128C74.5316 18.1943 74.4871 18.2288 74.6809 18.1859C74.629 18.1812 74.7554 18.1394 74.9112 18.1042C74.8665 18.1139 74.8614 18.1208 74.878 18.1215C75.1613 18.0565 75.1549 18.0461 74.9312 18.0996C75.0516 18.0719 75.1156 18.058 75.2293 18.0322C75.258 18.0253 75.2642 18.0251 75.3136 18.015C75.3232 18.0124 75.4298 17.9865 75.4875 17.974C75.5906 17.9462 75.572 17.9727 75.5466 17.9871C75.4713 18.0134 75.3709 18.0048 75.2517 18.0338C75.2329 18.0358 75.0038 18.1118 74.9837 18.119C74.7618 18.1699 74.9159 18.1079 74.717 18.1577C74.6759 18.1719 74.6351 18.1879 74.5948 18.2057C74.3838 18.2142 74.4896 18.1979 74.2605 18.2554C74.3246 18.2199 74.3244 18.2568 73.8068 18.3786C73.5885 18.4283 73.4572 18.4429 73.4019 18.4566C73.2035 18.5028 73.4247 18.4771 73.4147 18.4817C73.4028 18.4854 73.3911 18.4885 73.3797 18.4912C73.3797 18.4912 73.3797 18.4912 73.3796 18.4912C73.2629 18.5157 73.1718 18.5027 73.1189 18.5159C73.0241 18.535 72.6385 18.6354 72.5528 18.6557C72.5353 18.6584 72.4392 18.6611 72.2908 18.7013C72.1406 18.741 72.1422 18.7635 72.1268 18.7684C72.037 18.7924 71.9462 18.7756 71.8929 18.7884C71.8657 18.7936 71.7035 18.8489 71.6561 18.8611C71.6082 18.8724 71.5004 18.882 71.348 18.9112C71.2347 18.9326 71.1512 18.964 71.1331 18.966C71.1208 18.9661 71.1162 18.9366 71.0963 18.9403C71.0666 18.9447 70.9334 18.9805 70.8996 18.987C70.8509 18.9962 70.8975 18.9766 70.848 18.9885C70.8105 18.9952 70.3563 19.1401 70.233 19.1699C70.0219 19.2172 70.4959 19.0562 69.674 19.2924C69.6686 19.294 69.7306 19.2931 69.7255 19.2946C69.5743 19.3377 69.3291 19.3496 69.382 19.3914C69.0941 19.3555 69.0622 19.4515 68.7038 19.5184C68.566 19.544 68.5 19.5132 68.4793 19.5171C68.3068 19.5596 68.4445 19.5443 68.3606 19.5679C68.3138 19.5818 68.1212 19.5804 68.0041 19.6156C67.9438 19.6347 67.9757 19.6748 67.9641 19.6788C67.8552 19.7213 67.729 19.7281 67.6497 19.7499C67.5967 19.7649 67.5983 19.7915 67.5887 19.7941C67.569 19.8004 67.344 19.8145 67.2657 19.8226C67.2056 19.8295 67.1189 19.8737 67.0923 19.8751C66.9335 19.8842 67.31 19.7332 66.776 19.915C66.7433 19.9264 66.7617 19.9451 66.7552 19.9471C66.6032 19.9955 66.5808 19.9587 66.4519 19.978C66.2299 20.0128 66.3662 20.05 66.2004 20.0306C66.0663 20.1031 66.0775 20.1242 66.1251 20.1489C65.9905 20.0719 65.4094 20.1316 65.457 20.2767C65.4565 20.234 65.1376 20.3082 65.1288 20.2953C65.1238 20.288 65.424 20.1366 64.7184 20.3301C64.6305 20.3554 64.7546 20.3795 64.5688 20.4046C64.588 20.2693 64.4524 20.4291 64.4281 20.4334C64.0096 20.5419 64.2767 20.0882 64.2206 20.0362C64.1519 19.9724 63.8071 19.9616 63.8042 19.9453C63.7962 19.8939 63.9729 19.9106 64.0338 19.8898C64.0939 19.8696 63.7478 19.7783 63.7652 19.7704C63.834 19.7354 64.0396 19.734 64.0495 19.7299C64.1686 19.6801 63.9904 19.5398 64.0334 19.4951C63.9019 19.5108 63.9014 19.5982 63.684 19.5686C63.4304 19.5328 64.0102 19.4657 64.0356 19.4616C64.0008 19.1914 63.9799 18.9821 63.9611 18.7843C63.6513 18.806 63.8941 18.9233 63.8537 18.9302C63.6133 18.964 63.6023 18.7383 63.7105 18.708C63.6448 18.7321 63.5792 18.7558 63.5136 18.7812C63.1551 18.7684 63.6132 18.6633 63.4531 18.6252C63.4012 18.6124 63.2654 18.6508 63.256 18.6507C63.1166 18.6411 63.2215 18.6061 63.4086 18.6168C63.3748 18.6106 63.3542 18.6053 63.3432 18.6007C63.2954 18.5816 63.4273 18.5732 63.4378 18.5465C63.4384 18.5448 63.2953 18.5667 63.2343 18.5445C63.2057 18.5334 63.2019 18.4718 63.0757 18.4699C63.0225 18.4691 62.4665 18.5311 62.9467 18.5091C62.7165 18.5903 63.1667 18.519 63.1571 18.5464C63.1548 18.5507 62.8864 18.5563 63.0163 18.6173C62.5325 18.6323 62.8893 18.5312 62.8301 18.5225C62.7091 18.5009 62.4684 18.6285 62.8354 18.6299C62.8379 18.6299 62.8404 18.6299 62.843 18.6299C62.8371 18.6301 62.8314 18.6303 62.8259 18.6304C62.6985 18.6345 62.6593 18.6371 62.6604 18.64C62.6622 18.6453 62.7874 18.6518 62.7787 18.669C62.7636 18.6992 62.6506 18.6932 62.651 18.709C62.6508 18.7522 62.9157 18.7185 62.6782 18.7697C63.4184 18.6884 62.7799 18.8247 62.5876 18.8687C62.5467 18.8223 62.5061 18.7787 62.4656 18.7338C62.4268 18.7388 62.3879 18.7436 62.3491 18.7488C62.3539 18.7362 62.3587 18.724 62.3635 18.7116C62.401 18.7113 62.4385 18.711 62.4759 18.7107C62.3619 18.6887 62.3588 18.6698 62.3886 18.6556C62.4234 18.6398 62.5029 18.6298 62.5043 18.6271C62.5324 18.5618 62.5262 18.4907 62.5241 18.4306C62.5237 18.4217 62.2808 18.4397 62.4679 18.3644C62.5275 18.3407 62.7177 18.3509 62.6881 18.3289C62.1726 18.3246 62.5827 18.3051 62.5829 18.2964C62.5816 18.2711 62.4536 18.2626 62.4521 18.2603C62.4308 18.2307 62.45 18.1847 62.4296 18.1527C62.4276 18.1521 62.2704 18.1766 62.3162 18.1529C62.3325 18.1441 63.0039 18.0474 62.7816 17.9987C62.7367 18.0158 62.6918 18.033 62.647 18.0502C62.7098 18.0293 62.5346 17.9122 62.3553 17.95C62.2458 17.9735 62.6824 18.0003 62.2646 18.0234C62.3878 17.9761 62.1916 17.7557 62.2882 17.7346C62.302 17.7316 62.4382 17.7415 62.4554 17.7375C62.4685 17.7343 62.4344 17.6839 62.4863 17.6752C62.5171 17.67 62.6011 17.6896 62.6499 17.6859C62.6847 17.683 62.7404 17.6168 62.5702 17.6193C62.6391 17.6326 62.5811 17.6791 62.4369 17.6612C62.419 17.6588 62.5281 17.6393 62.5054 17.6364C62.2958 17.6103 62.3495 17.7094 62.3484 17.7251C62.1294 17.6697 62.3812 17.5622 62.2375 17.4941C62.378 17.4598 62.4555 17.5302 62.5716 17.4929C62.8123 17.4157 62.3753 17.4813 62.3572 17.4798C62.2138 17.4674 62.9771 17.3831 62.3946 17.4027C62.4815 17.3748 62.5552 17.3805 62.4778 17.3477C62.4376 17.3537 62.3974 17.3596 62.3573 17.3656C62.0185 17.337 62.8672 17.2272 62.9324 17.2316C63.1067 17.2427 62.837 17.294 62.8436 17.2975C62.8534 17.3027 63.445 17.2984 62.9184 17.375C63.3157 17.3861 63.1829 17.2725 63.4549 17.3173C63.4094 17.2823 63.6807 17.1257 63.5061 17.1097C63.4833 17.1079 63.0886 17.1315 63.2886 17.0888C63.3838 17.0686 63.3896 17.1104 63.4794 17.0998C63.7547 17.0671 63.5689 16.7403 63.553 16.677C63.5524 16.6729 63.6751 16.6715 63.6739 16.6674C63.6701 16.6551 63.4862 16.6142 63.5421 16.5906C63.3162 16.642 63.2965 16.5528 63.3209 16.5292C63.3582 16.4937 63.5741 16.4912 63.6197 16.4753C63.7953 16.414 63.2811 16.3342 63.7593 16.2801C63.2839 16.2916 63.991 16.1976 63.9945 16.1614C63.9975 16.1326 63.6821 16.0958 63.4911 16.1379C63.5122 16.0879 63.4227 16.0358 63.3932 15.9891C63.3882 15.9814 63.529 15.9903 63.5161 15.977C63.5139 15.9758 63.3761 15.9759 63.3616 15.9645C63.2402 15.8705 63.5337 15.9134 63.6195 15.8946C63.6676 15.8842 63.6915 15.8763 63.6993 15.8708C63.7269 15.926 63.7819 15.9892 63.786 16.0056C64.0901 15.9873 63.726 15.8849 63.8075 15.8513C63.8105 15.8502 63.9782 15.8521 63.9794 15.851C63.9794 15.851 63.9794 15.8509 63.9794 15.8509C63.9921 15.8389 63.9294 15.7638 63.7296 15.7812C63.6762 15.7863 63.6767 15.821 63.6953 15.8625C63.6577 15.8517 63.4699 15.8622 63.4619 15.8603C63.3687 15.8371 63.5515 15.7759 63.576 15.7543C63.5814 15.7494 63.461 15.7508 63.4607 15.75C63.4879 15.7304 63.8317 15.7354 63.4771 15.7187C63.9051 15.6803 63.5412 15.7835 63.8194 15.7739C64.0334 15.7671 63.9168 15.5445 63.5795 15.5451C63.6156 15.5442 63.6604 15.5409 63.7113 15.5343C63.7316 15.5316 63.7471 15.5275 63.7585 15.5223C63.7781 15.5122 63.7394 15.4215 63.7592 15.4117C63.812 15.3973 63.7794 15.3679 63.7284 15.3614C63.7162 15.36 63.3887 15.356 63.3857 15.3545C63.3782 15.351 63.6356 15.3045 63.4422 15.2843C63.3962 15.2937 63.3502 15.303 63.3042 15.3123C63.3019 15.2531 63.2043 15.2617 63.1062 15.2802C63.1053 15.2812 63.0929 15.282 63.0915 15.2829C63.019 15.2973 62.9491 15.3157 62.9232 15.3156C62.8247 15.3153 62.7707 15.218 63.0743 15.2386C63.1159 15.2418 62.9802 15.2862 63.1972 15.2655C63.2352 15.2619 63.1735 15.2316 63.1974 15.2302C63.3564 15.2204 63.567 15.2879 63.7928 15.282C63.578 15.264 63.6914 15.2442 63.636 15.2251C63.6109 15.2165 63.4467 15.2137 63.4436 15.2126C63.4009 15.197 63.573 15.2064 63.5687 15.2013C63.5658 15.1983 63.1994 15.1671 63.7045 15.1741C63.333 15.0735 63.3335 15.1459 63.3616 15.2066C63.1778 15.1866 63.2668 15.1497 63.2241 15.133C63.2086 15.127 63.0401 15.1305 63.0063 15.1206C62.9371 15.1004 63.1302 15.0009 63.1755 14.9748C63.2352 14.9899 63.4188 14.9837 63.406 14.9715C63.3931 14.9593 63.1481 14.9721 63.1217 14.97C63.0945 14.968 63.2094 14.909 63.1775 14.8999C63.2669 14.9418 63.4498 14.9301 63.4685 14.8924C63.5213 14.897 63.5741 14.9016 63.6269 14.9064C63.5525 14.8855 63.831 14.8346 63.7476 14.8233C63.7342 14.8216 63.5804 14.8316 63.5729 14.8306C63.5073 14.8211 63.6635 14.7798 63.6109 14.7791C63.5672 14.7786 63.4385 14.7974 63.3748 14.7928C63.3614 14.7919 63.5691 14.7719 63.5176 14.7578C63.4987 14.7526 63.3532 14.7594 63.3448 14.7582C63.2745 14.7482 63.5197 14.7492 63.4798 14.7286C63.4503 14.7135 63.2104 14.7085 63.2891 14.685C62.9856 14.7632 63.1116 14.7011 63.0182 14.6748C63.0033 14.6705 62.7392 14.6825 62.867 14.651C63.3465 14.6955 63.119 14.6259 63.1236 14.6104C63.1252 14.6095 63.2994 14.6033 63.3019 14.5955C63.3017 14.5948 63.1841 14.5998 63.1748 14.5931C63.0873 14.5294 63.2218 14.5672 63.3374 14.5501C63.3867 14.5429 63.2189 14.516 63.2146 14.5075C63.2141 14.5055 63.3364 14.5014 63.3313 14.4937C63.3219 14.4801 63.1912 14.4733 63.1805 14.4647C63.1798 14.4637 63.3728 14.4551 63.3094 14.4407C63.2917 14.4366 63.223 14.4344 63.1678 14.4437C62.9864 14.4741 63.304 14.504 63.1229 14.5375C62.958 14.5674 62.9394 14.4943 62.9382 14.4907C62.9375 14.4893 63.034 14.4996 63.0523 14.4842C63.0675 14.4709 62.7333 14.4635 62.8051 14.4424C62.8104 14.4409 63.0922 14.4127 63.1087 14.4126C63.1208 14.4127 63.1831 14.4325 63.2647 14.4254C63.274 14.4246 63.2715 14.4102 63.3322 14.4053C63.4062 14.3995 64.133 14.3579 64.151 14.3536C64.1957 14.3429 64.0301 14.3565 64.0414 14.3505C64.0651 14.3376 64.278 14.2856 64.026 14.2976C64.0114 14.305 63.9968 14.3125 63.9821 14.3199C63.9543 14.2843 63.8479 14.3058 63.8004 14.3031C63.7489 14.3003 63.9705 14.29 63.9906 14.2765C63.9951 14.2736 63.9459 14.2243 63.853 14.2307C64.0026 14.2509 63.7283 14.2559 63.7235 14.2574C63.706 14.2635 63.8598 14.2611 63.8571 14.2679C63.8356 14.3159 63.5908 14.2821 63.5291 14.2965C63.5083 14.3013 63.6398 14.3017 63.6331 14.3036C63.6117 14.31 63.4401 14.3192 63.4542 14.3219C63.4868 14.3282 63.7292 14.306 63.7418 14.3059C63.8942 14.3052 63.7066 14.3436 63.4414 14.3396C63.3467 14.355 63.6679 14.3398 63.54 14.3548C63.2866 14.3842 63.3506 14.356 63.3081 14.3516C63.1545 14.3358 63.2774 14.3223 63.2334 14.2916C63.2179 14.2802 63.0611 14.2751 63.0522 14.2701C63.0466 14.2673 63.5871 14.201 62.7381 14.2524C62.8195 14.2354 63.3776 14.1802 63.3512 14.1686C63.3271 14.1584 63.027 14.1818 63.0154 14.1815C62.997 14.181 63.0197 14.1654 62.977 14.1636C62.9265 14.1615 62.8121 14.1719 62.7648 14.1666C62.6474 14.1534 62.9539 14.1326 62.9736 14.1289C63.2019 14.0869 62.7669 14.1293 62.7316 14.1262C62.6992 14.1237 62.8614 14.0384 62.7499 14.0322C62.8117 14.0334 62.8735 14.0347 62.9354 14.0361C63.1255 14.0097 62.813 14.0229 63.1555 13.9951C62.6024 14.0374 62.9701 13.9851 62.9553 13.9793C62.9492 13.9772 62.855 13.9853 62.8506 13.9823C62.8331 13.971 62.9055 13.9348 62.8571 13.9321C62.649 13.9209 62.3137 14.0265 62.2934 14.0332C62.2985 14.0208 62.169 13.9668 61.906 14.0199C61.8654 14.0279 62.1134 14.0142 62.1233 14.016C62.1885 14.0281 61.9657 14.0334 61.9447 14.0366C61.9109 14.0417 62.1261 14.035 62.1009 14.0402C62.0928 14.0419 61.8915 14.0525 61.8887 14.069C61.6935 14.0776 61.848 14.0185 61.8018 14.0168C61.7853 14.0162 61.3709 14.0665 61.7712 13.9926C61.7326 13.9966 61.6941 14.0006 61.6556 14.0046C61.6378 13.9859 61.6199 13.9666 61.6021 13.9485C61.6911 13.9417 61.8707 13.9356 61.8314 13.9249C61.8087 13.9188 61.6115 13.9447 61.6056 13.9445C61.5506 13.9417 61.6032 13.8134 61.5785 13.796C61.5704 13.7893 61.4095 13.7897 61.4064 13.7888C61.3894 13.7819 61.4887 13.7389 61.4656 13.7365C61.4508 13.7349 61.2865 13.7604 61.2938 13.7563C61.3009 13.7525 61.4604 13.7339 61.467 13.7322C61.5236 13.7159 61.308 13.6966 61.4565 13.6655C61.4123 13.6776 61.7349 13.6661 61.8471 13.651C61.8625 13.6487 61.9821 13.6217 61.9228 13.6282C62.06 13.6049 61.6394 13.6552 61.7209 13.6381C61.7302 13.636 61.9655 13.604 62.0066 13.5871C62.0206 13.5812 61.8363 13.6006 62.04 13.5603C61.9396 13.5623 62.2344 13.4591 61.9833 13.5052C61.97 13.5075 61.8844 13.5277 61.7808 13.5434C61.6432 13.5648 62.1051 13.484 62.1439 13.4717C62.1497 13.4691 62.1012 13.4678 62.0728 13.4742C61.8144 13.5238 61.7104 13.5477 61.6804 13.5536C61.6045 13.5672 61.5585 13.5748 61.5765 13.5718C61.5949 13.5677 61.9372 13.5013 61.8073 13.5257C61.7664 13.5339 61.7256 13.5421 61.6847 13.5503C61.6051 13.5661 61.8417 13.5189 61.8561 13.5158C61.9017 13.5059 61.5435 13.5832 61.9868 13.4922C62.1044 13.4677 62.2346 13.4387 62.2523 13.4351C62.4103 13.4013 61.9879 13.494 62.3034 13.4267C62.3269 13.4216 62.515 13.3775 62.5166 13.3822C62.4863 13.3885 62.456 13.3948 62.4258 13.4011C62.3583 13.4158 62.321 13.4369 62.3377 13.4364C62.3857 13.432 62.6001 13.3743 62.5759 13.3871C62.2786 13.452 62.2477 13.4926 62.5013 13.4268C62.1834 13.5115 62.439 13.4859 62.4537 13.509C62.4617 13.5205 62.3368 13.6042 62.3554 13.6074C62.3778 13.6103 62.5915 13.5418 62.644 13.5425C62.6583 13.5405 62.5183 13.6445 62.7601 13.6327C62.8067 13.6306 63.1741 13.5279 63.2566 13.4758C63.3982 13.388 63.0906 13.4335 63.305 13.3653C63.5336 13.2907 63.42 13.4032 63.4593 13.4194C63.6413 13.4948 63.8543 13.3317 63.9282 13.3086C64.1069 13.2499 64.1272 13.3184 64.1458 13.3189C64.2203 13.303 64.3383 13.1966 64.446 13.1564C64.5848 13.1012 64.8601 13.0631 64.9011 13.0296C64.9578 12.9795 64.732 13.0185 64.7408 13.0112C64.8644 12.9273 65.2048 12.8521 65.3671 12.8009C65.417 12.7852 65.4921 12.7414 65.5074 12.7387C65.7401 12.6955 65.0575 12.9216 65.1182 12.944C65.174 12.9671 65.363 12.8302 65.3761 12.8288C65.389 12.8244 65.4186 12.8634 65.4961 12.8398C65.529 12.8158 65.9048 12.5669 66.0953 12.5095C66.0597 12.5386 66.0276 12.5765 66.0009 12.6244C66.238 12.5227 66.0482 12.5616 66.0717 12.5485C66.1187 12.5223 66.2469 12.4906 66.3219 12.4584C66.3691 12.4369 66.5349 12.3528 66.6108 12.3368C66.6368 12.3304 66.4747 12.4124 66.6552 12.3628C66.8415 12.1997 66.9974 12.1942 67.0794 12.1535C67.1629 12.1164 67.357 12.0231 67.3273 12.0503C67.7868 11.8472 67.4722 11.9853 67.5527 11.9489C67.6531 11.9077 67.8029 11.8369 67.6918 11.8971C67.9104 11.8101 67.8882 11.7999 67.9058 11.7937C67.9211 11.7861 68.0281 11.7421 68.0636 11.7254C68.4696 11.5203 68.2861 11.6181 68.5457 11.4882C68.5694 11.4772 68.648 11.3938 68.6996 11.4026C68.7973 11.4292 68.4951 11.5749 69.1634 11.3268C69.428 11.1518 68.9692 11.2562 68.9573 11.2521C68.9347 11.2329 69.0766 11.1908 69.1115 11.1697C69.1231 11.1631 69.0978 11.1414 69.1075 11.1353C69.577 10.8576 69.1805 11.2581 69.2742 11.246C69.345 11.2043 69.4153 11.1614 69.4848 11.1169C69.4949 11.1323 69.5048 11.1477 69.5146 11.1632C69.6326 11.0204 69.5701 11.1344 69.9882 10.9957C70.0824 10.9653 69.9005 10.9661 70.1836 10.935C70.2227 10.8612 70.311 10.8395 70.1745 10.8347C70.338 10.7669 70.5725 10.8162 70.6736 10.8317C70.7934 10.5889 70.2347 10.933 70.4812 10.6391C70.2687 10.6987 70.3413 10.7573 70.3051 10.7651C70.1786 10.7989 70.3391 10.652 69.8983 10.7865C69.8272 10.8111 69.6418 10.9523 69.6228 10.8913C69.622 10.886 69.769 10.7464 69.7809 10.7388C69.9183 10.6692 69.8955 10.7479 69.9522 10.7182C70.008 10.6936 69.9443 10.6527 69.9586 10.6444C70.1254 10.548 70.0504 10.6586 70.099 10.622C70.2115 10.5531 70.422 10.0816 70.4999 10.4741C70.1645 10.3128 70.3065 10.5552 70.4133 10.5899C70.4422 10.602 70.5493 10.5594 70.5994 10.5733C70.6629 10.5882 70.6296 10.651 70.6563 10.6603C70.6856 10.671 70.8916 10.4558 70.8814 10.6466C71.102 10.4676 70.7684 10.4198 70.8693 10.2089C71.0415 9.72808 71.3908 10.1915 71.4243 10.1979C71.4385 10.2049 71.5627 10.103 71.5746 10.1062C71.5978 10.1184 71.6171 10.3484 71.7396 10.3127C71.8666 10.2845 71.7074 10.2473 71.8276 10.1883C71.9131 10.1563 72.1476 10.321 72.1588 10.1781C72.1662 10.0768 71.755 10.0383 72.0845 9.8269C72.198 9.99353 72.2794 10.1157 72.354 10.2261C72.468 10.1063 72.5822 9.98918 72.6812 9.84016C72.7978 10.0016 72.6805 10.1742 72.9213 10.2266C73.2663 9.76596 73.3173 10.2138 73.3683 10.1911C73.4032 10.1861 73.7308 9.94612 73.7891 9.89917C73.974 9.97973 74.1314 10.2622 74.5334 9.94319C74.4412 10.0094 74.7191 10.0162 74.7378 10.009C74.9392 9.94707 74.7503 9.79049 74.9412 9.76693C75.1634 9.74034 74.8932 9.87952 74.9312 9.92542C75.1223 10.1459 76.1653 9.80039 76.0599 10.0933C76.0966 10.0792 76.1334 10.065 76.1701 10.0507C76.1739 10.3275 76.1596 10.5635 76.138 10.7801C76.4827 10.7967 76.7218 10.9738 76.701 11.0765C76.6974 11.0979 76.5397 11.2235 76.5101 11.234C76.4538 11.2562 76.4201 11.1888 76.316 11.2386C76.2948 11.2491 76.2459 11.4149 76.4294 11.3756C76.4482 11.3548 76.3467 11.3146 76.3889 11.2989C76.6919 11.1892 76.5134 11.7031 76.64 11.7023C76.699 11.6842 76.758 11.666 76.8169 11.6477C76.7911 11.6805 76.7653 11.7133 76.7394 11.7459ZM61.7899 13.5472C61.6071 13.5913 61.7467 13.5681 61.6967 13.586C61.6261 13.6088 60.9281 13.8033 61.6309 13.6213C61.6826 13.5917 61.7359 13.5679 61.7899 13.5472ZM61.5181 13.6238C61.6169 13.602 62.0177 13.5408 61.8522 13.5732C61.8334 13.577 61.3851 13.6529 61.5181 13.6238ZM61.7007 13.5509C61.706 13.5499 61.6958 13.5537 61.6896 13.555C61.5298 13.5862 61.5617 13.5755 61.7007 13.5509ZM61.9618 13.9544C61.9431 13.9425 61.5771 13.9873 61.7289 13.981C61.7385 13.9807 61.9628 13.9552 61.9618 13.9544ZM61.9706 13.9438C62.2981 13.9013 61.6304 13.9459 61.699 13.9555C61.7059 13.9563 61.9546 13.9457 61.9706 13.9438ZM61.6741 13.5794C61.7988 13.5585 61.7395 13.574 61.71 13.5813C61.5961 13.6002 61.6883 13.579 61.6741 13.5794ZM61.7377 13.7787C61.8365 13.767 61.8266 13.7319 61.6963 13.7461C61.7522 13.7447 61.649 13.7888 61.7377 13.7787ZM61.8877 13.8621C61.9047 13.8592 61.8772 13.8479 61.79 13.8578C61.6763 13.8769 61.8109 13.875 61.8877 13.8621ZM61.9026 14.0834C61.9246 14.0825 62.4802 14.025 62.1162 14.0834C62.0629 14.0918 61.9163 14.0887 61.8964 14.0919C61.8577 14.0981 61.8398 14.1019 61.8367 14.1041C61.7895 14.0948 61.7667 14.0835 61.8004 14.0794C61.9593 14.0601 61.8934 14.0838 61.9026 14.0834ZM62.327 14.1786C62.4181 14.1751 62.3708 14.1972 62.3337 14.204C62.3267 14.2052 62.0877 14.2183 62.1061 14.2253C62.1213 14.231 62.3652 14.2045 62.3269 14.2203C62.2885 14.2363 62.113 14.23 62.1007 14.2321C62.0845 14.2347 62.1956 14.2478 62.0533 14.2563C61.9479 14.2628 62.0178 14.2367 61.995 14.2328C61.9658 14.228 61.7908 14.248 61.8277 14.2343C61.8508 14.2257 62.1597 14.2084 62.1752 14.2058C62.1877 14.2036 62.0083 14.1911 62.3261 14.1787C62.3264 14.1787 62.3267 14.1787 62.327 14.1786ZM61.8506 14.1065C61.8401 14.1064 61.8344 14.1057 61.8367 14.1041C61.841 14.105 61.8459 14.1057 61.8506 14.1065ZM61.9201 13.5072C61.8265 13.5257 61.7079 13.5562 61.8306 13.5319C61.9289 13.5099 61.9346 13.5041 61.9201 13.5072ZM62.1027 14.0989C62.027 14.1249 61.9196 14.1183 61.8506 14.1065C61.9091 14.1073 62.128 14.0901 62.1027 14.0989ZM61.9228 13.6282C61.9001 13.632 61.8645 13.6375 61.806 13.6459C61.8698 13.6354 61.9041 13.6303 61.9228 13.6282ZM61.8227 13.6738C62.0026 13.6603 61.9923 13.6387 61.8647 13.6567C61.8165 13.6635 61.8156 13.6743 61.8227 13.6738ZM61.9459 13.9731C61.9633 13.97 62.5067 13.9412 62.0976 13.948C62.0353 13.9703 61.9747 13.9586 61.9273 13.9634C61.7911 13.9767 61.9246 13.9916 61.8663 14.0032C62.1106 13.9859 61.8885 13.9827 61.9459 13.9731C61.9459 13.9731 61.9459 13.9731 61.9459 13.9731ZM62.2099 14.4276C62.0664 14.4304 62.1118 14.4146 62.1197 14.405C62.2632 14.4018 62.2178 14.4179 62.2099 14.4276ZM62.2694 18.1339C62.1319 18.0268 62.7151 17.9881 62.4888 18.0998C62.484 18.102 62.3289 18.1382 62.2694 18.1339ZM62.3859 17.19C62.6401 17.1722 62.6821 17.2042 62.5776 17.2295C62.5541 17.2352 62.2969 17.2617 62.2458 17.2422C62.5544 17.2332 62.6712 17.1972 62.3859 17.19ZM62.2662 14.0975C62.436 14.0903 62.3169 14.1185 62.2922 14.1298C62.1523 14.1345 62.2139 14.1101 62.2662 14.0975ZM62.5588 17.7572C62.5776 17.7449 62.3559 17.7456 62.3376 17.7483C62.2534 17.7604 62.4332 17.7751 62.5588 17.7572ZM62.2878 14.0373C62.3889 14.0279 62.4882 14.0441 62.2382 14.066C62.2559 14.0594 62.2244 14.0432 62.2878 14.0373ZM62.2851 14.4062C62.3364 14.3995 62.4297 14.4157 62.3789 14.4246C62.271 14.4294 62.2517 14.4106 62.2851 14.4062ZM62.4768 17.5755C62.4957 17.5646 62.5006 17.5389 62.411 17.5392C62.299 17.5396 62.3385 17.5758 62.4768 17.5755ZM62.8438 19.9868C62.8044 19.9961 62.5043 19.9442 62.5722 19.8963C62.7016 19.8049 62.8709 19.9782 62.8438 19.9868ZM62.6772 17.8618C62.468 17.9028 62.6704 17.8585 62.4488 17.8688C62.4417 17.891 62.433 17.9465 62.6494 17.8997C62.6913 17.8907 62.6633 17.8726 62.6772 17.8618ZM62.7502 17.8288C62.6782 17.8281 62.4509 17.8134 62.4679 17.8332C62.4761 17.8424 62.7283 17.8475 62.7502 17.8288ZM62.6868 19.5128C62.8766 19.4411 62.7967 19.6856 62.7644 19.7015C62.7469 19.7076 62.7301 19.7122 62.7159 19.7154C62.7789 19.7178 62.7959 19.7649 62.6404 19.7907C62.6514 19.7735 62.6328 19.7349 62.6496 19.7281C62.6567 19.7252 62.6634 19.7228 62.6704 19.721C62.5319 19.717 62.65 19.5223 62.6868 19.5128ZM62.8573 19.1559C63.1499 19.1789 62.6596 19.2276 62.6435 19.225C62.4382 19.1902 62.8031 19.194 62.82 19.1909C62.8479 19.1851 62.6769 19.1624 62.8573 19.1561C62.8573 19.156 62.8573 19.156 62.8573 19.1559ZM62.7599 19.4296C62.7665 19.4308 62.7559 19.4782 62.7484 19.4813C62.5874 19.5358 62.6167 19.4007 62.7599 19.4296ZM62.6777 14.2575C62.6295 14.2723 62.4479 14.2718 62.5125 14.2602C62.5189 14.2592 62.7202 14.2445 62.6777 14.2575ZM62.7008 17.8146C62.7348 17.8083 62.8593 17.6853 62.586 17.7027C62.6187 17.7115 62.4831 17.8519 62.7008 17.8146ZM62.7381 16.9373C62.7366 16.9579 62.4778 16.9426 62.5738 16.929C62.6094 16.9239 62.7383 16.9321 62.7381 16.9373ZM62.5186 13.9853C62.3763 13.9857 62.8506 13.9468 62.689 13.9715C62.6827 13.9725 62.5242 13.9853 62.5186 13.9853ZM62.5944 17.1056C62.4359 17.0393 63.2546 17.0324 62.9811 17.1322C62.9446 17.1304 62.9081 17.1286 62.8715 17.1268C62.752 17.2366 62.8141 17.1359 62.7675 17.1112C62.7498 17.1018 62.6135 17.1141 62.5934 17.1057C62.5938 17.1057 62.5941 17.1057 62.5944 17.1056ZM62.7508 16.8289C63.3299 16.7458 62.955 16.8854 63.0317 16.9207C62.7909 16.8912 62.8259 16.8428 62.5821 16.9137C62.5321 16.821 62.7645 16.854 62.7836 16.8497C62.8051 16.8447 62.726 16.8325 62.7508 16.8289ZM62.7596 17.0086C62.7767 17.0121 62.6593 17.0452 62.6789 17.0553C62.4801 17.0461 62.6437 16.9857 62.7596 17.0086ZM62.7007 18.8624C62.8561 18.8553 62.9709 18.8549 62.9149 18.8885C62.8363 18.8841 62.768 18.8704 62.7007 18.8624ZM62.5888 13.3693C62.6001 13.3687 62.6585 13.361 62.4989 13.3969C62.4853 13.3996 62.4993 13.3895 62.5888 13.3693ZM62.8141 17.4678C62.8331 17.4638 62.8429 17.3741 62.6724 17.4107C62.621 17.4218 62.6457 17.5023 62.8141 17.4678ZM62.8122 17.935C62.8135 17.9273 62.7829 17.8973 62.7461 17.8982C62.619 17.9012 62.6904 17.9368 62.8122 17.935ZM62.7471 13.3471C62.7627 13.3432 62.7386 13.3645 62.6652 13.3818C62.5258 13.4125 62.6925 13.3578 62.7471 13.3471ZM63.0439 14.2796C63.0498 14.2819 62.8814 14.295 62.8796 14.296C62.8773 14.2983 62.9447 14.341 62.7272 14.3353C62.6908 14.3347 62.7701 14.2633 62.791 14.2536C63.0222 14.236 62.8038 14.2779 62.828 14.2833C62.8326 14.2843 63.0263 14.2737 63.043 14.2796C63.0433 14.2796 63.0436 14.2796 63.0439 14.2796ZM62.8754 19.0092C63.0226 19.0021 63.1291 19.1147 62.9511 19.128C62.9257 19.0881 62.9004 19.0471 62.8754 19.0092ZM62.8955 18.9481C62.9978 18.9165 63.0362 18.9708 62.9916 18.9919C62.8927 18.9993 62.8805 18.9522 62.8955 18.9481ZM63.3557 17.7418C63.3193 17.7342 63.1054 17.7701 63.0634 17.7656C63.0372 17.7626 63.117 17.7394 63.0495 17.7355C63.0281 17.7345 62.8268 17.7629 62.8358 17.7685C62.8478 17.7765 63.0065 17.7621 63.0079 17.7713C63.0125 17.8016 62.9002 17.8339 62.904 17.8625C62.9047 17.8651 63.0161 17.8404 63.0154 17.8627C63.0156 17.8661 62.8491 17.8934 62.875 17.9194C63.3954 17.957 62.8887 18.022 63.0788 18.0899C63.1274 18.0845 63.2558 18.0227 63.2605 18.0191C63.3429 17.9518 63.3477 17.8408 63.3462 17.7756C63.346 17.7591 63.2367 17.7713 63.2324 17.7644C63.2293 17.7589 63.4325 17.7577 63.3557 17.7418ZM62.698 13.3433C62.896 13.2987 62.7714 13.33 62.7823 13.3307C62.604 13.3717 62.7421 13.3345 62.698 13.3433ZM63.0235 18.4631C63.0152 18.4536 63.0747 18.4212 63.0135 18.422C62.9337 18.4229 62.8857 18.4681 63.0235 18.4631ZM62.9993 14.5507C63.0048 14.5511 62.9945 14.5647 62.9881 14.5654C62.8258 14.5833 62.8577 14.5426 62.9993 14.5507ZM62.969 14.8719C62.9942 14.8816 63.0578 14.8911 62.8932 14.897C62.9184 14.8901 62.8544 14.8726 62.969 14.8719ZM62.9749 15.3211C63.1905 15.3215 63.0505 15.3514 63.0311 15.357C62.9353 15.3533 62.8196 15.3208 62.9749 15.3211ZM63.3758 18.8136C63.3654 18.8501 63.6907 18.8199 63.5448 18.8532C63.5202 18.8588 62.8425 18.917 63.094 18.8596C63.1392 18.8495 63.3023 18.8661 63.3758 18.8136ZM62.9747 17.1473C63.1175 17.1504 63.0759 17.1746 63.065 17.1904C62.9589 17.1902 62.9852 17.1581 62.9747 17.1473ZM62.9122 13.3347C63.1078 13.2869 62.9723 13.3575 62.8421 13.3858C62.8247 13.3881 62.9201 13.3349 62.9122 13.3347ZM62.918 14.091C63.0773 14.0948 63.1239 14.0592 62.9686 14.0605C62.9791 14.0645 62.9075 14.0908 62.918 14.091ZM63.093 15.2133C63.0995 15.2142 63.0841 15.2323 63.0763 15.2331C62.9107 15.2469 62.9534 15.196 63.093 15.2133ZM63.2285 14.7597C63.3592 14.7631 63.2548 14.8088 63.1244 14.821C62.9335 14.8155 63.0654 14.7558 63.2285 14.7597ZM63.2741 18.6759C63.2823 18.6992 63.2437 18.7262 63.1888 18.7523C63.0789 18.7546 63.1923 18.6825 63.2741 18.6759ZM63.1062 15.2802C63.1053 15.2812 63.0929 15.282 63.0915 15.2829C63.0962 15.282 63.1015 15.2811 63.1062 15.2802ZM63.3246 18.1636C63.3671 18.1434 63.1662 18.1565 63.1601 18.1579C63.0956 18.1744 63.2766 18.1867 63.3246 18.1636ZM62.9897 13.278C63.1667 13.2373 63.0301 13.2717 63.0728 13.2644C62.9331 13.2972 62.9713 13.2831 62.9897 13.278ZM63.1209 16.7465C63.3173 16.7199 63.5483 16.8021 63.4219 16.8239C63.3002 16.8285 63.0941 16.7504 63.1209 16.7465ZM63.186 14.022C63.3278 14.0098 63.1548 14.0008 63.0882 14.011C63.0457 14.0173 63.0979 14.0295 63.186 14.022ZM63.3401 16.8703C63.3837 16.8774 63.2438 16.9004 63.1581 16.896C63.0481 16.8902 63.3276 16.8685 63.3401 16.8703ZM63.4777 17.6093C63.4993 17.6048 63.3516 17.561 63.2072 17.5865C63.1069 17.6043 63.3126 17.5991 63.3133 17.6024C63.3128 17.6062 63.0641 17.6943 63.4777 17.6093ZM63.2342 16.2462C63.2892 16.2639 63.2261 16.2877 63.2304 16.307C63.1422 16.3009 63.1174 16.2563 63.2342 16.2462ZM63.2305 14.1068C63.2878 14.0997 63.3168 14.0228 63.1432 14.078C63.1335 14.0811 63.0572 14.1273 63.2305 14.1068ZM63.3758 18.8136C63.3771 18.809 63.3835 18.8034 63.3972 18.7965C63.392 18.8028 63.3827 18.8086 63.3758 18.8136ZM63.3749 18.4315C63.4787 18.4332 63.5045 18.3955 63.4489 18.3877C63.3223 18.391 63.3603 18.4309 63.3749 18.4315ZM63.3749 16.3058C63.4344 16.3158 63.3716 16.3373 63.3787 16.3511C63.2824 16.3506 63.2772 16.3124 63.3749 16.3058ZM63.475 15.3872C63.4503 15.3933 63.441 15.4003 63.4479 15.4065C63.4269 15.4168 63.4679 15.5126 63.4471 15.5234C63.4563 15.536 63.4938 15.5455 63.5609 15.5455C63.5425 15.546 63.523 15.5473 63.5033 15.5493C63.4839 15.5513 63.5388 15.5766 63.4986 15.588C63.3915 15.6188 63.352 15.5695 63.3714 15.5236C63.3924 15.5128 63.3509 15.4157 63.3722 15.4052C63.3967 15.3704 63.5094 15.3386 63.6916 15.4076C63.6194 15.4007 63.5472 15.3939 63.475 15.3872ZM63.5043 14.6946C63.6475 14.6823 63.4671 14.6639 63.4109 14.6717C63.3723 14.6772 63.3602 14.7068 63.5043 14.6946ZM63.5948 15.0186C63.6204 15.0158 63.5198 14.9934 63.4442 14.9935C63.3648 15.0073 63.476 15.0309 63.5948 15.0186ZM63.6703 14.6249C63.6918 14.6188 63.4604 14.6196 63.4503 14.6205C63.3661 14.6285 63.5419 14.6378 63.6703 14.6249ZM63.9929 18.7017C64.0582 18.6843 63.8884 18.65 63.7354 18.6505C63.7648 18.647 63.8029 18.64 63.8486 18.6288C63.8486 18.6288 63.8486 18.6288 63.8486 18.6288C63.8637 18.625 63.878 18.6006 63.8866 18.5694C63.9128 18.4783 63.8882 18.3359 63.6767 18.5143C63.6676 18.5219 63.804 18.5047 63.7815 18.5348C63.7798 18.5368 63.6681 18.544 63.663 18.5502C63.659 18.5554 63.6479 18.5685 63.6395 18.5836C63.6247 18.6118 63.6187 18.6462 63.6768 18.6522C63.6561 18.6536 63.6364 18.6557 63.6185 18.6589C63.4584 18.687 63.9426 18.716 63.9929 18.7017ZM63.6156 15.0649C63.6571 15.06 63.6176 15.0452 63.5188 15.0442C63.4704 15.0518 63.5189 15.0762 63.6156 15.0649ZM63.6346 14.0758C63.715 14.061 63.5619 14.0494 63.4819 14.0621C63.4326 14.0697 63.5423 14.0926 63.6346 14.0758ZM63.5616 14.9166C63.4455 14.9728 63.5712 14.9296 63.7161 14.9362C63.6646 14.9296 63.6131 14.9231 63.5616 14.9166ZM63.6555 19.2079C63.6871 19.1871 63.9736 19.1824 63.821 19.2171C63.7726 19.2282 63.6383 19.2193 63.6555 19.2079ZM63.8992 20.329C64.1426 20.254 64.0221 20.4094 63.8418 20.3952C63.8356 20.3943 63.8902 20.333 63.8992 20.329ZM63.8732 19.4589C63.7001 19.4633 63.6785 19.4541 63.7169 19.4108C63.7714 19.4644 63.9174 19.3938 63.8732 19.4589ZM63.5795 15.5451C63.5725 15.5453 63.5674 15.5455 63.5609 15.5455C63.5673 15.5453 63.5733 15.5452 63.5795 15.5451ZM63.6237 14.5755C63.7696 14.5637 63.7581 14.545 63.6113 14.556C63.5977 14.5571 63.5157 14.5766 63.6237 14.5755ZM63.7354 18.6505C63.7093 18.6536 63.6924 18.6539 63.6768 18.6522C63.6963 18.6509 63.7147 18.6505 63.7354 18.6505ZM63.746 14.6742C63.637 14.6767 63.5954 14.7066 63.6082 14.7074C63.7977 14.7191 63.7529 14.686 63.746 14.6742ZM63.7734 13.8843C63.762 13.884 63.4822 13.9169 63.5926 13.9129C63.6782 13.91 63.8171 13.886 63.7734 13.8843ZM63.9595 19.5953C63.9622 19.6192 63.9669 19.6559 63.8351 19.6793C63.8532 19.659 63.862 19.6062 63.9595 19.5953ZM64.0696 20.2432C63.9077 20.2346 63.8911 20.1417 63.9075 20.0825C64.1109 20.0459 64.0143 20.2153 64.0696 20.2432ZM63.9187 18.7501C63.927 18.7479 63.9861 18.704 63.8482 18.7183C63.6459 18.7387 63.8443 18.7667 63.9187 18.7501ZM63.628 13.9381C63.7239 13.9399 64.0142 13.8935 63.7877 13.9023C63.6717 13.907 63.6119 13.9378 63.628 13.9381ZM63.8128 14.5093C63.7321 14.4988 63.5908 14.5381 63.7357 14.5371C63.7471 14.5306 63.8413 14.513 63.8128 14.5093ZM63.9705 14.9767C64.3878 14.9283 63.626 14.9604 63.693 14.9672C63.7026 14.9682 63.9607 14.9778 63.9705 14.9767ZM63.7394 13.1907C63.6859 13.2143 63.4774 13.2514 63.6094 13.2093C63.6919 13.183 63.7735 13.1758 63.7394 13.1907ZM63.6993 15.8708C63.6979 15.868 63.6965 15.8653 63.6953 15.8625C63.7021 15.8645 63.7044 15.8672 63.6993 15.8708ZM64.3664 14.3599C63.7787 14.4182 64.2326 14.3935 64.2303 14.3965C64.2242 14.4026 64.0655 14.423 64.0921 14.4326C64.0252 14.4231 63.9583 14.4138 63.8914 14.4047C63.8494 14.4164 63.636 14.5087 63.7316 14.5067C63.8678 14.5039 63.824 14.479 63.836 14.4778C63.853 14.476 64.2312 14.4562 64.2455 14.453C64.2683 14.4477 64.273 14.3759 64.3664 14.3599ZM63.904 14.8851C63.859 14.8929 63.7091 14.897 63.745 14.8998C63.7573 14.9007 63.9003 14.8989 63.9374 14.9022C63.9263 14.8965 63.9151 14.8908 63.904 14.8851ZM63.8341 14.3312C64.0083 14.3137 63.9439 14.3554 63.9244 14.3576C63.8063 14.3698 63.6918 14.3453 63.8341 14.3312ZM63.8725 14.6559C63.8827 14.6542 63.9363 14.6225 63.8394 14.6258C63.7657 14.636 63.7453 14.6765 63.8725 14.6559ZM63.9472 14.9068C63.9307 14.9177 63.7868 14.9395 64.0023 14.9347C64.0023 14.9347 64.0023 14.9347 64.0023 14.9347C63.9839 14.9253 63.9656 14.916 63.9472 14.9068ZM64.0843 13.9346C64.4249 13.8887 63.9934 13.9323 63.8843 13.9571C64.0383 13.9499 64.0289 13.9421 64.0843 13.9346ZM64.3345 13.8547C64.3956 13.8444 64.3235 13.7962 64.1433 13.8206C64.0791 13.829 64.2444 13.8453 64.232 13.8479C64.2136 13.8516 64.0126 13.859 64.0537 13.8718C64.1214 13.8652 64.3141 13.8582 64.3345 13.8547ZM64.3021 13.9017C64.5607 13.8619 64.0806 13.8972 64.0804 13.9109C64.08 13.9163 64.2648 13.9074 64.3021 13.9017ZM64.2672 13.9815C64.3122 13.9717 64.3772 13.9479 64.2166 13.948C64.2043 13.9655 64.1919 13.9834 64.1795 14.0006C64.2701 13.9958 64.2276 13.9903 64.2672 13.9815C64.2672 13.9815 64.2672 13.9815 64.2672 13.9815ZM65.3446 20.3108C65.4715 20.2536 65.5365 20.3025 65.5036 20.3092C65.3966 20.3405 65.2882 20.3377 65.3446 20.3108ZM67.8915 11.823C67.9415 11.8015 68.1074 11.7341 68.018 11.7633C67.8975 11.8178 67.7758 11.8695 67.6534 11.9197C67.9383 11.8169 67.8363 11.8467 67.8915 11.823ZM68.9041 11.3761C68.9116 11.375 69.3362 11.1831 69.0605 11.3298C68.871 11.4204 68.6534 11.4311 68.831 11.3269C68.9257 11.3013 68.8435 11.3856 68.9041 11.3761ZM70.4948 10.0958C70.5274 10.0753 70.6649 10.1914 70.6473 10.2158C70.5695 10.3565 70.3603 10.2477 70.4948 10.0958ZM70.6271 10.5098C70.6881 10.427 70.7879 10.5022 70.749 10.5442C70.6711 10.5821 70.6194 10.5238 70.6271 10.5098ZM71.9021 18.7269C72.2134 18.6699 71.541 18.7797 71.6776 18.7644C71.6841 18.7638 71.8868 18.7298 71.9021 18.7269ZM70.9876 9.99684C70.9473 10.1074 70.8187 10.0008 70.8162 9.90524C70.8895 9.85723 70.9958 9.98261 70.9876 9.99684ZM72.6446 18.5964C72.8691 18.5581 72.1153 18.6842 72.085 18.6903C71.9656 18.7138 72.2623 18.6683 72.3355 18.6541C72.2216 18.6689 72.5389 18.615 72.6446 18.5964ZM72.1886 18.6508C72.1069 18.6554 71.9552 18.6963 72.1662 18.6661C72.1557 18.6651 72.2122 18.6494 72.1886 18.6508ZM72.4255 18.5718C72.4521 18.5635 72.5155 18.5411 72.3957 18.551C72.418 18.5551 72.3024 18.5842 72.4255 18.5718ZM72.7822 18.5193C72.9438 18.4938 72.4704 18.5447 72.6124 18.5381C72.6179 18.5378 72.7732 18.5206 72.7822 18.5193ZM72.9482 18.4552C73.1361 18.4306 72.6765 18.4685 72.6651 18.4801C72.6626 18.4836 72.9267 18.458 72.9482 18.4552ZM73.4559 18.4622C73.5367 18.4525 73.2107 18.5048 73.1745 18.5085C73.1249 18.5176 73.0751 18.5257 73.0251 18.5329C72.8425 18.5633 73.2943 18.4885 73.2754 18.4898C73.2483 18.4913 72.8761 18.5566 72.7592 18.5767C72.9875 18.5384 72.9892 18.527 73.0321 18.5168C73.1273 18.4974 73.2952 18.4784 73.3569 18.474C73.3747 18.4727 73.2728 18.4912 73.2843 18.4901C73.3034 18.4884 73.4505 18.4631 73.4559 18.4622C73.4559 18.4622 73.4559 18.4622 73.4559 18.4622ZM72.9482 18.3804C73.1601 18.3408 72.6998 18.3936 72.7832 18.3989C72.7895 18.3989 72.943 18.3814 72.9482 18.3804ZM71.9744 8.93654C72.0376 9.19397 71.9453 9.26843 71.9491 9.34803C71.9462 9.41996 72.0512 9.52641 72.3258 9.64551C71.9885 9.58656 72.1436 9.724 72.0262 9.73786C71.9348 9.75089 71.9448 9.61306 71.8193 9.75554C71.8861 9.67479 71.8479 9.52736 71.7731 9.38225C71.6891 9.21846 71.5426 9.03868 71.5415 9.01347C71.5417 9.01376 71.542 9.01405 71.5422 9.01434C71.5396 8.98222 71.9254 8.76439 71.9744 8.93654ZM73.6281 18.4294C74.1859 18.3614 73.2999 18.4634 73.7618 18.404C73.0889 18.472 73.7641 18.4244 73.1974 18.4954C73.2595 18.457 72.6384 18.5861 73.484 18.4578C73.1776 18.5081 73.5893 18.4465 73.6975 18.4333C73.8126 18.4185 73.6875 18.4344 73.8946 18.404C73.8946 18.404 73.8946 18.404 73.8946 18.404C73.8805 18.4088 73.866 18.4113 73.8512 18.4115C73.4039 18.4728 73.5372 18.448 73.902 18.4004C73.8108 18.4106 73.7195 18.4202 73.6281 18.4294ZM73.2104 18.504C73.2207 18.5032 73.1572 18.5062 73.0674 18.518C73.0105 18.5287 73.0801 18.5257 73.2104 18.504ZM73.3024 18.4592C73.3035 18.4593 73.3912 18.4483 73.2245 18.4829C73.2226 18.4793 73.1358 18.4946 73.3024 18.4592ZM73.3084 18.1085C73.1678 18.0989 73.1301 18.1576 73.2942 18.1309C73.3019 18.1297 73.315 18.109 73.3084 18.1085ZM73.5419 18.4232C73.7117 18.3963 73.1687 18.4589 73.3111 18.4504C73.3195 18.4498 73.5342 18.4243 73.5419 18.4232ZM72.2251 9.19493C72.2857 9.16542 72.3638 9.27546 72.4147 9.38561C72.4621 9.48827 72.4825 9.58492 72.4959 9.61185C72.4321 9.6226 72.3465 9.55537 72.2806 9.46155C72.2107 9.35899 72.1562 9.22912 72.2251 9.19493ZM73.7919 18.3525C74.2624 18.2498 73.723 18.3879 73.7346 18.3842C73.7471 18.3837 73.9531 18.3405 73.9587 18.3398C73.9706 18.3387 73.9576 18.3658 73.9433 18.3689C73.9321 18.3713 73.6403 18.4197 73.549 18.4389C73.7137 18.4038 73.6035 18.3887 73.6365 18.3871C73.6621 18.3815 73.9662 18.3181 73.7919 18.3525C73.7919 18.3525 73.7919 18.3525 73.7919 18.3525ZM73.7988 18.3768C73.6761 18.3952 73.6633 18.4113 73.7088 18.4061C73.811 18.3956 73.8134 18.3749 73.7988 18.3768ZM73.917 18.3896C73.9448 18.3868 73.9711 18.3922 73.8345 18.412C73.6573 18.4372 73.8528 18.398 73.917 18.3896ZM73.8888 18.2848C73.8707 18.2803 73.975 18.2541 73.8547 18.2625C73.8728 18.2679 73.7685 18.294 73.8888 18.2848ZM73.6559 9.77145C73.729 9.6764 73.8184 9.80326 73.7835 9.85219C73.7083 9.88012 73.6512 9.7833 73.6559 9.77145ZM74.6883 18.2967C74.725 18.2956 74.6299 18.2642 74.5726 18.2575C74.4827 18.2764 74.4801 18.3214 74.5242 18.3142C74.5375 18.3131 74.6826 18.2975 74.6883 18.2967ZM74.7353 18.2378C74.9091 18.2005 74.6983 18.2318 74.6955 18.2316C74.6672 18.2277 74.7029 18.2007 74.5356 18.2369C74.6068 18.2412 74.3898 18.3101 74.7353 18.2378ZM74.6894 18.2133C74.6218 18.1958 74.439 18.2553 74.6235 18.2337C74.6347 18.2324 74.6965 18.215 74.6894 18.2133ZM74.74 18.2935C74.8834 18.2838 74.76 18.2937 74.7581 18.2821C74.4967 18.3241 74.6961 18.2987 74.6832 18.3035C74.6793 18.3046 74.5701 18.3185 74.5699 18.3185C74.5649 18.3198 74.691 18.3032 74.693 18.3034C74.6943 18.307 74.539 18.3154 74.74 18.2935ZM74.8558 18.2127C74.9558 18.1921 74.9871 18.1241 74.9602 18.1282C74.7598 18.1517 74.8206 18.215 74.8558 18.2127ZM74.9738 18.2659C75.2799 18.2351 75.0752 18.2585 74.9227 18.2752C74.9088 18.2765 75.0412 18.2602 74.9738 18.2659ZM74.9816 18.1914C74.9905 18.19 75.0499 18.1617 74.9523 18.1688C74.9147 18.176 74.8834 18.2117 74.9816 18.1914ZM75.3124 18.1744C75.31 18.1741 75.1226 18.1951 75.1455 18.1833C75.1477 18.1821 75.359 18.1634 75.2806 18.1571C75.2644 18.1559 75.1242 18.1628 75.1155 18.1638C74.785 18.207 75.4234 18.1884 75.3124 18.1744ZM75.025 18.1823C75.1138 18.1702 75.3742 18.1167 75.2403 18.1324C75.1825 18.1395 75.0266 18.1736 75.025 18.1823ZM75.0611 18.1052C75.223 18.1097 75.2499 18.0574 75.2085 18.0567C75.1085 18.0656 75.0453 18.1047 75.0611 18.1052ZM74.8796 9.50208C74.8796 9.50201 74.8796 9.50194 74.8795 9.50186C74.8709 9.59068 74.7275 9.58512 74.7248 9.59029C74.5898 9.8098 74.8634 9.67143 74.9055 9.68488C74.9945 9.70978 74.6397 9.81166 74.8095 9.84399C74.5542 9.78222 74.6806 9.87118 74.5556 9.91215C74.0475 10.0831 74.7452 9.67358 74.6093 9.62355C74.5914 9.61875 74.4535 9.74681 74.3987 9.73626C74.2263 9.71394 74.9035 9.14666 74.8796 9.50208ZM75.2623 18.1225C75.4158 18.085 75.2531 18.0498 75.1294 18.093C75.1096 18.0989 75.0387 18.1752 75.2623 18.1225ZM75.4178 15.5032C75.5307 15.5152 75.6598 15.4929 75.6407 15.4819L75.6398 15.6114C75.6359 15.6075 75.6256 15.6041 75.6074 15.602C75.5871 15.5997 75.5454 15.6033 75.5051 15.6092L75.5059 15.4823C75.4415 15.4889 75.3809 15.4993 75.4178 15.5032ZM76.0036 15.2518C75.9761 15.2221 75.4078 15.1904 75.4959 15.2264C75.5055 15.2301 75.9248 15.2547 76.0036 15.2518ZM75.7263 16.5214C75.9287 16.4948 75.5515 16.5059 75.5572 16.5214C75.5592 16.5269 75.7198 16.5222 75.7263 16.5214ZM75.6618 15.7272C75.6749 15.725 75.6506 15.7023 75.5639 15.7041C75.5119 15.7131 75.5715 15.7413 75.6618 15.7272ZM75.7801 16.5267C75.7118 16.5159 75.4395 16.5449 75.7066 16.5532C75.6845 16.5459 75.7871 16.5278 75.7801 16.5267ZM75.8025 18.1719C75.6482 18.1865 75.6942 18.1754 75.6672 18.1728C75.867 18.1539 75.7662 18.1746 75.8025 18.1719ZM75.7743 15.3742C75.6331 15.3458 75.5167 15.4029 75.7038 15.3993C75.714 15.3987 75.7804 15.3753 75.7743 15.3742ZM75.8222 17.2012C75.702 17.1919 75.5427 17.2417 75.7526 17.2217C75.7611 17.2207 75.8288 17.2016 75.8222 17.2012ZM75.7603 17.393C75.8002 17.381 75.786 17.3378 75.67 17.3595C75.6521 17.3628 75.6507 17.3968 75.7603 17.393ZM75.0446 9.64536C75.2353 9.56388 75.2237 9.69174 75.1935 9.71722C75.1809 9.72697 74.7966 9.75072 75.0446 9.64536ZM75.755 16.3828C75.7289 16.3725 75.7772 16.3429 75.669 16.3405C75.6917 16.3533 75.5396 16.3917 75.755 16.3828ZM75.774 15.4989C75.9984 15.4778 75.9767 15.4364 75.6838 15.4433C75.7029 15.4884 75.9471 15.4408 75.774 15.4989ZM76.0232 16.5907C76.04 16.5815 75.7587 16.5825 75.7455 16.5839C75.6198 16.5969 75.914 16.6025 76.0232 16.5907ZM75.7772 15.9426C75.8973 15.9401 75.8423 15.9137 75.765 15.9186C75.7391 15.9202 75.6799 15.9446 75.7772 15.9426ZM75.8572 17.995C75.9661 17.9792 76.0748 17.9981 75.9476 18.0145C75.7638 18.0309 75.8447 17.997 75.8572 17.995ZM75.9601 16.8363C76.1384 16.832 76.0362 16.7912 75.889 16.8131C75.8522 16.8186 75.9005 16.8377 75.9601 16.8363ZM76.1884 17.2453C75.9747 17.2247 75.8286 17.3516 76.0922 17.3093C76.1109 17.3063 76.2064 17.2471 76.1884 17.2453ZM76.0636 17.4459C76.0868 17.44 76.6856 17.4169 76.4556 17.4467C76.4258 17.4506 76.267 17.4452 76.2309 17.4488C76.2103 17.4511 76.1281 17.4978 76.1421 17.4991C76.1581 17.5006 76.3499 17.4896 76.3715 17.4908C76.3956 17.4922 76.2283 17.5263 76.227 17.54C76.2251 17.5658 76.3849 17.5612 76.3855 17.5633C76.3868 17.5694 76.2739 17.585 76.2747 17.5974C76.2788 17.6601 76.4187 17.7431 76.0827 17.8059C76.2165 17.7588 76.0702 17.7266 76.0237 17.686C76.3577 17.6824 75.7638 17.635 76.1506 17.661C76.0661 17.6459 75.9911 17.4658 76.0636 17.4459C76.0636 17.4459 76.0636 17.4459 76.0636 17.4459ZM76.1719 15.1365C76.3765 15.1547 76.3304 15.0618 76.0936 15.0543C76.0608 15.0669 76.1487 15.1342 76.1719 15.1365ZM76.6676 15.5712C76.7013 15.5801 77.0689 15.5938 76.922 15.633L76.9231 15.4775C76.9165 15.4786 76.9089 15.4796 76.9002 15.4807C76.9002 15.4808 76.9002 15.4808 76.9002 15.4808C76.841 15.4884 76.7435 15.4803 76.7088 15.4818C76.6946 15.4823 76.4957 15.5068 76.4637 15.4872C76.4581 15.4838 76.4576 15.4812 76.4611 15.4791L76.4602 15.6252C76.4884 15.597 76.7605 15.6365 76.7647 15.6113C76.7651 15.6078 76.5494 15.5509 76.5019 15.5534C76.4963 15.5536 76.5419 15.5703 76.5221 15.5727C76.4477 15.5816 76.3229 15.5748 76.3169 15.5761C76.3094 15.5783 76.3571 15.6006 76.385 15.624L76.3859 15.4794C76.4149 15.4924 76.423 15.5067 76.329 15.5108C76.3025 15.5119 76.2607 15.4968 76.225 15.4799L76.224 15.6213C76.1796 15.5827 76.1448 15.5384 76.1622 15.5356C76.1819 15.5325 76.5285 15.5388 76.5627 15.5357C76.5797 15.534 76.4505 15.4769 76.4824 15.4701C76.4917 15.4681 76.5016 15.4666 76.5098 15.4656C76.4025 15.4727 76.4107 15.4228 76.5317 15.4256C76.5793 15.4269 76.5514 15.4612 76.5431 15.4623C76.5395 15.4628 76.5347 15.4633 76.5313 15.4637C76.6622 15.4578 76.6547 15.5756 76.8496 15.5529C76.9556 15.5889 76.5643 15.544 76.6676 15.5712ZM76.8819 15.5385C76.8454 15.5367 76.8089 15.5349 76.7725 15.533C76.8619 15.5667 76.6867 15.6093 76.6884 15.6516C76.6886 15.6624 76.9115 15.6477 76.8507 15.6625C76.8019 15.674 76.5953 15.6888 76.5491 15.6831C76.5376 15.6817 76.672 15.6574 76.6581 15.646C76.6169 15.6126 76.4257 15.6229 76.4206 15.621C76.4151 15.6188 76.5494 15.5969 76.5433 15.5854C76.5276 15.5568 76.4101 15.5448 76.5633 15.5059C76.6895 15.5271 76.9632 15.5137 76.8819 15.5385ZM76.5069 17.0028C76.6272 17.0002 76.5214 17.0298 76.5394 17.0388C76.4188 17.0415 76.5249 17.0116 76.5069 17.0028ZM76.4561 12.0052C76.2584 12.0154 76.2219 12.1228 76.382 12.0768C76.4175 12.0665 76.4562 12.0183 76.4561 12.0052ZM76.3862 12.4683C76.4419 12.4761 76.578 12.4088 76.4259 12.4244C76.3772 12.4294 76.379 12.4673 76.3862 12.4683ZM76.6938 16.0246C76.7 16.026 76.6564 16.0484 76.6464 16.0493C76.437 16.0677 76.5569 15.9938 76.6938 16.0246ZM76.6753 12.9756C76.5428 12.9409 76.4972 13.0799 76.6586 13.0262C76.6665 13.0235 76.6817 12.9773 76.6753 12.9756ZM76.7251 13.1589C76.7175 13.1488 76.7782 13.097 76.718 13.1008C76.621 13.107 76.5586 13.1652 76.7251 13.1589ZM76.7692 16.576C76.9915 16.5665 76.8242 16.6107 76.8526 16.6236C76.6301 16.6332 76.7976 16.5889 76.7692 16.576ZM76.9268 16.3231C77.1062 16.4842 76.63 16.4598 76.8182 16.3159C76.9609 16.3123 76.9155 16.313 76.9268 16.3231ZM76.9058 16.5361C76.7631 16.534 76.8049 16.5139 76.816 16.5008C76.9151 16.5005 76.88 16.5276 76.9058 16.5361ZM76.7442 11.8447C76.9253 11.841 76.7148 11.9476 76.6393 11.9425C76.623 11.941 76.6453 11.8513 76.7442 11.8447ZM76.8845 16.0346C77.1008 16.0268 77.0134 16.077 76.9655 16.0818C76.7725 16.1007 76.9323 16.0375 76.8845 16.0346ZM76.9665 16.8063C77.1362 16.8097 77.0499 16.8372 77.0481 16.8534C76.903 16.8507 76.9639 16.82 76.9665 16.8063ZM77.0957 16.6863C77.1023 16.6871 77.0876 16.71 77.0799 16.7112C76.9149 16.7346 76.9554 16.6698 77.0957 16.6863ZM76.3764 8.84944C76.3831 8.85153 76.4011 8.93625 76.3959 8.94081C76.267 9.06552 76.2139 8.81261 76.3764 8.84944Z" fill="#F2C0BD"/>
<path d="M0.456 13.2661V13.1461H0.804C1.02 13.1461 1.2 13.1141 1.344 13.0501C1.496 12.9861 1.608 12.8901 1.68 12.7621C1.752 12.6341 1.788 12.4741 1.788 12.2821V5.63414C1.788 5.45014 1.752 5.29814 1.68 5.17814C1.608 5.05814 1.496 4.97014 1.344 4.91414C1.2 4.85014 1.02 4.81814 0.804 4.81814H0.456V4.69814H2.796L7.368 11.5501V5.68214C7.368 5.49014 7.332 5.33014 7.26 5.20214C7.188 5.07414 7.08 4.97814 6.936 4.91414C6.792 4.85014 6.608 4.81814 6.384 4.81814H6.048V4.69814H8.82V4.81814H8.472C8.256 4.81814 8.076 4.85014 7.932 4.91414C7.788 4.97814 7.676 5.07414 7.596 5.20214C7.524 5.33014 7.488 5.49014 7.488 5.68214V13.2661H7.128L1.908 5.44214V12.2821C1.908 12.4741 1.944 12.6341 2.016 12.7621C2.088 12.8901 2.196 12.9861 2.34 13.0501C2.492 13.1141 2.676 13.1461 2.892 13.1461H3.228V13.2661H0.456ZM11.7323 13.3861C11.3243 13.3861 10.9723 13.3141 10.6763 13.1701C10.3803 13.0261 10.1523 12.8221 9.99234 12.5581C9.83234 12.2941 9.75234 11.9781 9.75234 11.6101C9.75234 10.9941 9.97634 10.5341 10.4243 10.2301C10.8803 9.92614 11.5683 9.75814 12.4883 9.72614L13.4843 9.69014V8.79014C13.4843 8.34214 13.4603 7.97414 13.4123 7.68614C13.3643 7.39814 13.2603 7.18614 13.1003 7.05014C12.9403 6.90614 12.6963 6.83414 12.3683 6.83414C12.0643 6.83414 11.8323 6.89814 11.6723 7.02614C11.5123 7.15414 11.4043 7.35014 11.3483 7.61414C11.3003 7.87014 11.2763 8.20614 11.2763 8.62214C10.9403 8.62214 10.6843 8.56614 10.5083 8.45414C10.3403 8.34214 10.2563 8.15814 10.2563 7.90214C10.2563 7.61414 10.3523 7.38614 10.5443 7.21814C10.7443 7.04214 11.0083 6.91414 11.3363 6.83414C11.6643 6.75414 12.0243 6.71414 12.4163 6.71414C13.1523 6.71414 13.7003 6.87014 14.0603 7.18214C14.4283 7.49414 14.6123 8.03014 14.6123 8.79014V12.3781C14.6123 12.5701 14.6363 12.7221 14.6843 12.8341C14.7323 12.9461 14.8123 13.0261 14.9243 13.0741C15.0363 13.1221 15.1803 13.1461 15.3563 13.1461H15.3923V13.2661H13.5803V12.0061H13.5563C13.4763 12.3261 13.3483 12.5901 13.1723 12.7981C12.9963 12.9981 12.7843 13.1461 12.5363 13.2421C12.2963 13.3381 12.0283 13.3861 11.7323 13.3861ZM11.9723 13.2181C12.2683 13.2181 12.5283 13.1421 12.7523 12.9901C12.9843 12.8381 13.1643 12.6341 13.2923 12.3781C13.4203 12.1221 13.4843 11.8461 13.4843 11.5501V9.82214L12.7163 9.85814C12.2603 9.87414 11.9003 9.94614 11.6363 10.0741C11.3803 10.2021 11.1963 10.4021 11.0843 10.6741C10.9723 10.9381 10.9163 11.2941 10.9163 11.7421C10.9163 12.0621 10.9523 12.3341 11.0243 12.5581C11.1043 12.7741 11.2243 12.9381 11.3843 13.0501C11.5443 13.1621 11.7403 13.2181 11.9723 13.2181ZM18.7941 13.3861C18.1861 13.3861 17.7421 13.2501 17.4621 12.9781C17.1901 12.6981 17.0541 12.2141 17.0541 11.5261V6.95414H16.1421V6.83414C16.4301 6.83414 16.6781 6.81014 16.8861 6.76214C17.1021 6.70614 17.2861 6.62214 17.4381 6.51014C17.5981 6.39814 17.7261 6.24614 17.8221 6.05414C17.9261 5.86214 18.0061 5.63014 18.0621 5.35814H18.1821V6.83414H19.8621V6.95414H18.1821V11.9701C18.1821 12.3861 18.2621 12.6981 18.4221 12.9061C18.5821 13.1141 18.8181 13.2181 19.1301 13.2181C19.2421 13.2181 19.3581 13.2061 19.4781 13.1821C19.5981 13.1581 19.7261 13.1221 19.8621 13.0741V13.1941C19.7581 13.2421 19.6021 13.2861 19.3941 13.3261C19.1861 13.3661 18.9861 13.3861 18.7941 13.3861ZM23.5288 13.3861C22.8248 13.3861 22.2968 13.2021 21.9448 12.8341C21.6008 12.4581 21.4288 11.8581 21.4288 11.0341V8.03414C21.4288 7.76214 21.3968 7.55014 21.3328 7.39814C21.2768 7.23814 21.1768 7.12614 21.0328 7.06214C20.8888 6.99014 20.6928 6.95414 20.4448 6.95414H20.4088V6.83414H22.5568V11.0941C22.5568 11.6061 22.5928 12.0181 22.6648 12.3301C22.7368 12.6341 22.8568 12.8581 23.0248 13.0021C23.2008 13.1461 23.4328 13.2181 23.7208 13.2181C24.0808 13.2181 24.3768 13.1261 24.6088 12.9421C24.8488 12.7501 25.0288 12.4741 25.1488 12.1141C25.2688 11.7461 25.3288 11.3061 25.3288 10.7941V8.03414C25.3288 7.76214 25.2968 7.55014 25.2328 7.39814C25.1768 7.23814 25.0768 7.12614 24.9328 7.06214C24.7888 6.99014 24.5928 6.95414 24.3448 6.95414H24.3088V6.83414H26.4568V12.0781C26.4568 12.3501 26.4848 12.5661 26.5408 12.7261C26.6048 12.8781 26.7088 12.9861 26.8528 13.0501C26.9968 13.1141 27.1928 13.1461 27.4408 13.1461H27.4768V13.2661H25.4128V11.6221H25.3888C25.3248 12.0301 25.2208 12.3541 25.0768 12.5941C24.9408 12.8261 24.7808 12.9981 24.5968 13.1101C24.4208 13.2221 24.2368 13.2941 24.0448 13.3261C23.8608 13.3661 23.6888 13.3861 23.5288 13.3861ZM28.026 13.2661V13.1461H28.182C28.422 13.1461 28.614 13.1141 28.758 13.0501C28.902 12.9861 29.006 12.8861 29.07 12.7501C29.134 12.6141 29.166 12.4381 29.166 12.2221V7.89014C29.166 7.66614 29.134 7.48614 29.07 7.35014C29.006 7.21414 28.902 7.11414 28.758 7.05014C28.614 6.98614 28.422 6.95414 28.182 6.95414H28.146V6.83414H30.282V8.03414H30.306C30.362 7.82614 30.446 7.62214 30.558 7.42214C30.67 7.22214 30.838 7.05414 31.062 6.91814C31.294 6.78214 31.602 6.71414 31.986 6.71414C32.386 6.71414 32.69 6.79414 32.898 6.95414C33.114 7.10614 33.222 7.32214 33.222 7.60214C33.222 7.84214 33.134 8.04214 32.958 8.20214C32.79 8.36214 32.506 8.44214 32.106 8.44214C32.106 8.10614 32.066 7.84614 31.986 7.66214C31.914 7.47014 31.814 7.33414 31.686 7.25414C31.566 7.17414 31.434 7.13414 31.29 7.13414C31.058 7.13414 30.874 7.21814 30.738 7.38614C30.602 7.54614 30.502 7.75814 30.438 8.02214C30.374 8.27814 30.334 8.54614 30.318 8.82614C30.302 9.09814 30.294 9.35014 30.294 9.58214V12.1621C30.294 12.4021 30.326 12.5941 30.39 12.7381C30.454 12.8821 30.558 12.9861 30.702 13.0501C30.854 13.1141 31.046 13.1461 31.278 13.1461H31.434V13.2661H28.026ZM35.7441 13.3861C35.3361 13.3861 34.9841 13.3141 34.6881 13.1701C34.3921 13.0261 34.1641 12.8221 34.0041 12.5581C33.8441 12.2941 33.7641 11.9781 33.7641 11.6101C33.7641 10.9941 33.9881 10.5341 34.4361 10.2301C34.8921 9.92614 35.5801 9.75814 36.5001 9.72614L37.4961 9.69014V8.79014C37.4961 8.34214 37.4721 7.97414 37.4241 7.68614C37.3761 7.39814 37.2721 7.18614 37.1121 7.05014C36.9521 6.90614 36.7081 6.83414 36.3801 6.83414C36.0761 6.83414 35.8441 6.89814 35.6841 7.02614C35.5241 7.15414 35.4161 7.35014 35.3601 7.61414C35.3121 7.87014 35.2881 8.20614 35.2881 8.62214C34.9521 8.62214 34.6961 8.56614 34.5201 8.45414C34.3521 8.34214 34.2681 8.15814 34.2681 7.90214C34.2681 7.61414 34.3641 7.38614 34.5561 7.21814C34.7561 7.04214 35.0201 6.91414 35.3481 6.83414C35.6761 6.75414 36.0361 6.71414 36.4281 6.71414C37.1641 6.71414 37.7121 6.87014 38.0721 7.18214C38.4401 7.49414 38.6241 8.03014 38.6241 8.79014V12.3781C38.6241 12.5701 38.6481 12.7221 38.6961 12.8341C38.7441 12.9461 38.8241 13.0261 38.9361 13.0741C39.0481 13.1221 39.1921 13.1461 39.3681 13.1461H39.4041V13.2661H37.5921V12.0061H37.5681C37.4881 12.3261 37.3601 12.5901 37.1841 12.7981C37.0081 12.9981 36.7961 13.1461 36.5481 13.2421C36.3081 13.3381 36.0401 13.3861 35.7441 13.3861ZM35.9841 13.2181C36.2801 13.2181 36.5401 13.1421 36.7641 12.9901C36.9961 12.8381 37.1761 12.6341 37.3041 12.3781C37.4321 12.1221 37.4961 11.8461 37.4961 11.5501V9.82214L36.7281 9.85814C36.2721 9.87414 35.9121 9.94614 35.6481 10.0741C35.3921 10.2021 35.2081 10.4021 35.0961 10.6741C34.9841 10.9381 34.9281 11.2941 34.9281 11.7421C34.9281 12.0621 34.9641 12.3341 35.0361 12.5581C35.1161 12.7741 35.2361 12.9381 35.3961 13.0501C35.5561 13.1621 35.7521 13.2181 35.9841 13.2181ZM40.0818 13.2661V13.1461H40.2378C40.4778 13.1461 40.6698 13.1141 40.8138 13.0501C40.9578 12.9861 41.0618 12.8861 41.1258 12.7501C41.1898 12.6141 41.2218 12.4381 41.2218 12.2221V5.20214C41.2218 4.97814 41.1898 4.79814 41.1258 4.66214C41.0618 4.52614 40.9578 4.42614 40.8138 4.36214C40.6698 4.29814 40.4778 4.26614 40.2378 4.26614H40.0818V4.14614H42.3498V12.1621C42.3498 12.4021 42.3818 12.5941 42.4458 12.7381C42.5098 12.8821 42.6138 12.9861 42.7578 13.0501C42.9018 13.1141 43.0938 13.1461 43.3338 13.1461H43.4898V13.2661H40.0818ZM46.7919 13.2661V13.1461H47.1399C47.3559 13.1461 47.5359 13.1141 47.6799 13.0501C47.8319 12.9861 47.9439 12.8901 48.0159 12.7621C48.0879 12.6341 48.1239 12.4741 48.1239 12.2821V5.63414C48.1239 5.45014 48.0879 5.29814 48.0159 5.17814C47.9439 5.05814 47.8319 4.97014 47.6799 4.91414C47.5359 4.85014 47.3559 4.81814 47.1399 4.81814H46.7919V4.69814H49.1319L53.7039 11.5501V5.68214C53.7039 5.49014 53.6679 5.33014 53.5959 5.20214C53.5239 5.07414 53.4159 4.97814 53.2719 4.91414C53.1279 4.85014 52.9439 4.81814 52.7199 4.81814H52.3839V4.69814H55.1559V4.81814H54.8079C54.5919 4.81814 54.4119 4.85014 54.2679 4.91414C54.1239 4.97814 54.0119 5.07414 53.9319 5.20214C53.8599 5.33014 53.8239 5.49014 53.8239 5.68214V13.2661H53.4639L48.2439 5.44214V12.2821C48.2439 12.4741 48.2799 12.6341 48.3519 12.7621C48.4239 12.8901 48.5319 12.9861 48.6759 13.0501C48.8279 13.1141 49.0119 13.1461 49.2279 13.1461H49.5639V13.2661H46.7919ZM58.0683 13.3861C57.6603 13.3861 57.3083 13.3141 57.0123 13.1701C56.7163 13.0261 56.4883 12.8221 56.3283 12.5581C56.1683 12.2941 56.0883 11.9781 56.0883 11.6101C56.0883 10.9941 56.3123 10.5341 56.7603 10.2301C57.2163 9.92614 57.9043 9.75814 58.8243 9.72614L59.8203 9.69014V8.79014C59.8203 8.34214 59.7963 7.97414 59.7483 7.68614C59.7003 7.39814 59.5963 7.18614 59.4363 7.05014C59.2763 6.90614 59.0323 6.83414 58.7043 6.83414C58.4003 6.83414 58.1683 6.89814 58.0083 7.02614C57.8483 7.15414 57.7403 7.35014 57.6843 7.61414C57.6363 7.87014 57.6123 8.20614 57.6123 8.62214C57.2763 8.62214 57.0203 8.56614 56.8443 8.45414C56.6763 8.34214 56.5923 8.15814 56.5923 7.90214C56.5923 7.61414 56.6883 7.38614 56.8803 7.21814C57.0803 7.04214 57.3443 6.91414 57.6723 6.83414C58.0003 6.75414 58.3603 6.71414 58.7523 6.71414C59.4883 6.71414 60.0363 6.87014 60.3963 7.18214C60.7643 7.49414 60.9483 8.03014 60.9483 8.79014V12.3781C60.9483 12.5701 60.9723 12.7221 61.0203 12.8341C61.0683 12.9461 61.1483 13.0261 61.2603 13.0741C61.3723 13.1221 61.5163 13.1461 61.6923 13.1461H61.7283V13.2661H59.9163V12.0061H59.8923C59.8123 12.3261 59.6843 12.5901 59.5083 12.7981C59.3323 12.9981 59.1203 13.1461 58.8723 13.2421C58.6323 13.3381 58.3643 13.3861 58.0683 13.3861ZM58.3083 13.2181C58.6043 13.2181 58.8643 13.1421 59.0883 12.9901C59.3203 12.8381 59.5003 12.6341 59.6283 12.3781C59.7563 12.1221 59.8203 11.8461 59.8203 11.5501V9.82214L59.0523 9.85814C58.5963 9.87414 58.2363 9.94614 57.9723 10.0741C57.7163 10.2021 57.5323 10.4021 57.4203 10.6741C57.3083 10.9381 57.2523 11.2941 57.2523 11.7421C57.2523 12.0621 57.2883 12.3341 57.3603 12.5581C57.4403 12.7741 57.5603 12.9381 57.7203 13.0501C57.8803 13.1621 58.0763 13.2181 58.3083 13.2181ZM62.526 13.2661V13.1461H62.682C62.922 13.1461 63.114 13.1141 63.258 13.0501C63.402 12.9861 63.506 12.8861 63.57 12.7501C63.634 12.6141 63.666 12.4381 63.666 12.2221V7.89014C63.666 7.66614 63.634 7.48614 63.57 7.35014C63.506 7.21414 63.402 7.11414 63.258 7.05014C63.114 6.98614 62.922 6.95414 62.682 6.95414H62.646V6.83414H64.794V12.1621C64.794 12.4021 64.826 12.5941 64.89 12.7381C64.954 12.8821 65.058 12.9861 65.202 13.0501C65.354 13.1141 65.546 13.1461 65.778 13.1461H65.934V13.2661H62.526ZM64.17 5.68214C64.018 5.68214 63.89 5.63414 63.786 5.53814C63.69 5.43414 63.642 5.25814 63.642 5.01014C63.642 4.75414 63.69 4.57814 63.786 4.48214C63.89 4.38614 64.018 4.33814 64.17 4.33814C64.314 4.33814 64.438 4.38614 64.542 4.48214C64.646 4.57814 64.698 4.75414 64.698 5.01014C64.698 5.25814 64.646 5.43414 64.542 5.53814C64.438 5.63414 64.314 5.68214 64.17 5.68214ZM66.2498 13.2661V13.1461H66.4058C66.6458 13.1461 66.8378 13.1141 66.9818 13.0501C67.1258 12.9861 67.2298 12.8861 67.2938 12.7501C67.3578 12.6141 67.3898 12.4381 67.3898 12.2221V5.20214C67.3898 4.97814 67.3578 4.79814 67.2938 4.66214C67.2298 4.52614 67.1258 4.42614 66.9818 4.36214C66.8378 4.29814 66.6458 4.26614 66.4058 4.26614H66.2498V4.14614H68.5178V12.1621C68.5178 12.4021 68.5498 12.5941 68.6138 12.7381C68.6778 12.8821 68.7818 12.9861 68.9258 13.0501C69.0698 13.1141 69.2618 13.1461 69.5018 13.1461H69.6578V13.2661H66.2498ZM72.3766 13.3861C71.9766 13.3861 71.6246 13.3381 71.3206 13.2421C71.0166 13.1461 70.7766 13.0061 70.6006 12.8221C70.4326 12.6301 70.3486 12.3941 70.3486 12.1141C70.3486 11.8981 70.3926 11.7301 70.4806 11.6101C70.5686 11.4901 70.6686 11.4061 70.7806 11.3581C70.9006 11.3101 71.0086 11.2861 71.1046 11.2861C71.1046 11.7181 71.1446 12.0821 71.2246 12.3781C71.3046 12.6661 71.4406 12.8861 71.6326 13.0381C71.8246 13.1901 72.0806 13.2661 72.4006 13.2661C72.8246 13.2661 73.1606 13.1581 73.4086 12.9421C73.6566 12.7181 73.7806 12.3901 73.7806 11.9581C73.7806 11.6781 73.7326 11.4581 73.6366 11.2981C73.5406 11.1301 73.3806 10.9821 73.1566 10.8541C72.9406 10.7261 72.6366 10.5781 72.2446 10.4101C71.7886 10.2101 71.4286 10.0181 71.1646 9.83414C70.9006 9.64214 70.7126 9.43414 70.6006 9.21014C70.4886 8.98614 70.4326 8.72214 70.4326 8.41814C70.4326 7.87414 70.6246 7.45814 71.0086 7.17014C71.3926 6.87414 71.9246 6.72614 72.6046 6.72614C72.9886 6.72614 73.3166 6.77814 73.5886 6.88214C73.8686 6.97814 74.0806 7.11014 74.2246 7.27814C74.3686 7.44614 74.4406 7.63014 74.4406 7.83014C74.4406 8.04614 74.3646 8.22214 74.2126 8.35814C74.0686 8.48614 73.8566 8.55014 73.5766 8.55014C73.5766 7.93414 73.4926 7.49814 73.3246 7.24214C73.1566 6.97814 72.8966 6.84614 72.5446 6.84614C72.2726 6.84614 72.0446 6.89014 71.8606 6.97814C71.6846 7.06614 71.5486 7.19414 71.4526 7.36214C71.3646 7.53014 71.3206 7.74214 71.3206 7.99814C71.3206 8.27814 71.3766 8.50214 71.4886 8.67014C71.6006 8.83814 71.7726 8.98214 72.0046 9.10214C72.2446 9.22214 72.5406 9.35814 72.8926 9.51014C73.3486 9.69414 73.7086 9.88214 73.9726 10.0741C74.2366 10.2581 74.4206 10.4661 74.5246 10.6981C74.6366 10.9221 74.6926 11.1901 74.6926 11.5021C74.6926 12.1261 74.4846 12.5981 74.0686 12.9181C73.6526 13.2301 73.0886 13.3861 72.3766 13.3861Z" fill="#333333"/>
<path d="M67.1616 16.3174C67.0786 16.3174 67.0132 16.3033 66.9653 16.2749C66.8979 16.2359 66.8643 16.1758 66.8643 16.0948C66.8643 16.041 66.877 15.9829 66.9023 15.9204C66.9395 15.9605 66.9736 15.9888 67.0049 16.0054C67.0361 16.021 67.0693 16.0288 67.1045 16.0288C67.2041 16.0288 67.2808 15.9673 67.3345 15.8443C67.3569 15.7945 67.3735 15.7383 67.3843 15.6758C67.395 15.6123 67.4004 15.5503 67.4004 15.4898C67.4004 15.3745 67.3804 15.2847 67.3403 15.2202C67.2925 15.1451 67.2178 15.1075 67.1162 15.1075C67.0625 15.1075 67.0166 15.1109 66.9785 15.1177L66.7324 16.2661H66.3003L66.7075 14.3575L67.1514 14.2989L67.0107 14.9639H67.0283C67.0859 14.9639 67.1411 14.9497 67.1938 14.9214C67.2466 14.8931 67.293 14.8545 67.333 14.8057C67.3721 14.7578 67.4028 14.7051 67.4253 14.6475C67.4487 14.5899 67.4604 14.5332 67.4604 14.4776C67.4604 14.4346 67.4526 14.3941 67.437 14.356C67.4224 14.3169 67.3999 14.2827 67.3696 14.2534C67.3003 14.187 67.1987 14.1538 67.0649 14.1538C66.9419 14.1538 66.8252 14.1802 66.7148 14.2329C66.5918 14.2925 66.4976 14.3731 66.4321 14.4746C66.354 14.5928 66.3149 14.729 66.3149 14.8833C66.3149 14.9478 66.3223 14.9976 66.3369 15.0327C66.3408 15.0454 66.3457 15.0567 66.3516 15.0664C66.3555 15.0733 66.3574 15.0801 66.3574 15.0869C66.251 15.0869 66.1709 15.0659 66.1172 15.024C66.0635 14.981 66.0366 14.9102 66.0366 14.8116C66.0366 14.6748 66.0889 14.5445 66.1934 14.4204C66.2422 14.3618 66.3003 14.3081 66.3677 14.2593C66.436 14.2095 66.5107 14.1665 66.5918 14.1304C66.7627 14.0542 66.9404 14.0161 67.125 14.0161C67.3311 14.0161 67.4927 14.065 67.6099 14.1626C67.6606 14.2056 67.6987 14.2559 67.7241 14.3135C67.7505 14.3701 67.7637 14.4302 67.7637 14.4937C67.7637 14.5884 67.7383 14.6763 67.6875 14.7574C67.6309 14.8472 67.5562 14.918 67.4634 14.9698C67.5835 14.9912 67.6748 15.0493 67.7373 15.1441C67.791 15.2271 67.8179 15.3301 67.8179 15.4532C67.8179 15.5039 67.813 15.5601 67.8032 15.6216C67.7935 15.6831 67.7788 15.7442 67.7593 15.8047C67.7114 15.9551 67.6436 16.0728 67.5557 16.1577C67.4463 16.2642 67.3149 16.3174 67.1616 16.3174ZM68.3921 17.0161C68.3452 17.0161 68.3013 17.0098 68.2603 16.9971C68.2202 16.9854 68.1855 16.9673 68.1562 16.9429C68.125 16.9185 68.1006 16.8877 68.083 16.8506C68.0654 16.8145 68.0566 16.7725 68.0566 16.7246C68.0566 16.6114 68.1099 16.5142 68.2163 16.4331C68.2964 16.3736 68.4062 16.3218 68.5459 16.2779L68.5825 16.1167C68.5239 16.1812 68.4604 16.2266 68.3921 16.253C68.3394 16.2735 68.2827 16.2837 68.2222 16.2837C68.1265 16.2837 68.0508 16.2554 67.9951 16.1988C67.9326 16.1363 67.9014 16.045 67.9014 15.9248C67.9014 15.8682 67.9092 15.8028 67.9248 15.7285L68.1284 14.7661H68.5605L68.3452 15.7857C68.3394 15.8101 68.3364 15.8355 68.3364 15.8618C68.3364 15.8999 68.3428 15.9302 68.3555 15.9527C68.3701 15.98 68.3936 15.9937 68.4258 15.9937C68.4785 15.9937 68.5259 15.9702 68.5679 15.9234C68.604 15.8833 68.6348 15.8247 68.6602 15.7476L68.8696 14.7661H69.3018L69.0044 16.1577C69.0991 16.1265 69.1748 16.0796 69.2314 16.0171C69.293 15.9497 69.3433 15.8535 69.3823 15.7285H69.5083C69.4546 15.9063 69.3745 16.0435 69.2681 16.1402C69.1899 16.2105 69.0933 16.2603 68.978 16.2896L68.9326 16.5064C68.8945 16.6978 68.8184 16.8365 68.7041 16.9224C68.6211 16.9849 68.5171 17.0161 68.3921 17.0161ZM68.3232 16.7818C68.3535 16.7818 68.3857 16.7598 68.4199 16.7159C68.4531 16.6729 68.479 16.606 68.4976 16.5152L68.5151 16.4287C68.4243 16.4629 68.3564 16.4976 68.3115 16.5327C68.252 16.5777 68.2222 16.628 68.2222 16.6836C68.2222 16.71 68.2305 16.732 68.2471 16.7495C68.2656 16.771 68.291 16.7818 68.3232 16.7818ZM71.7114 17.0161C71.645 17.0161 71.5781 17.0005 71.5107 16.9693C71.4434 16.939 71.3706 16.8955 71.2925 16.8389C71.2212 16.7891 71.1504 16.7344 71.0801 16.6748C70.915 16.5381 70.7642 16.4414 70.6274 16.3848C70.5483 16.3516 70.4634 16.335 70.3726 16.335H70.3389C70.333 16.335 70.3213 16.336 70.3037 16.3379L70.7505 14.2593C70.6157 14.315 70.5122 14.398 70.4399 14.5083C70.3677 14.6177 70.3315 14.7525 70.3315 14.9126C70.3315 14.9742 70.3384 15.0244 70.3521 15.0635C70.356 15.0762 70.3608 15.0874 70.3667 15.0972C70.3706 15.104 70.3726 15.1109 70.3726 15.1177C70.2642 15.1177 70.1851 15.0957 70.1353 15.0518C70.0796 15.0049 70.0518 14.9297 70.0518 14.8262C70.0518 14.7608 70.0659 14.6963 70.0942 14.6328C70.1226 14.5684 70.1626 14.5064 70.2144 14.4468C70.2642 14.3892 70.3228 14.336 70.3901 14.2871C70.4585 14.2373 70.5317 14.1944 70.6099 14.1582C70.7759 14.083 70.9409 14.0454 71.105 14.0454C71.1411 14.0454 71.1812 14.0479 71.2251 14.0528L70.7637 16.2061C70.8115 16.2168 70.8599 16.2329 70.9087 16.2544C70.9585 16.2759 71.0151 16.3037 71.0786 16.3379L71.2427 16.4258C71.3696 16.4951 71.4844 16.543 71.5869 16.5694C71.6455 16.585 71.707 16.5928 71.7715 16.5928C71.8623 16.5928 71.9463 16.5767 72.0234 16.5445C72.0059 16.6909 71.9702 16.8057 71.9165 16.8887C71.8901 16.9297 71.8594 16.961 71.8242 16.9825C71.79 17.0049 71.7524 17.0161 71.7114 17.0161ZM71.6719 14.6035C71.6396 14.6035 71.6089 14.5977 71.5796 14.586C71.5503 14.5733 71.5249 14.5562 71.5034 14.5347C71.4819 14.5142 71.4648 14.4893 71.4521 14.46C71.4404 14.4307 71.4346 14.3999 71.4346 14.3677C71.4346 14.3355 71.4404 14.3047 71.4521 14.2754C71.4648 14.2461 71.4819 14.2202 71.5034 14.1978C71.5249 14.1753 71.5503 14.1582 71.5796 14.1465C71.6089 14.1338 71.6396 14.1275 71.6719 14.1275C71.7041 14.1275 71.7349 14.1338 71.7642 14.1465C71.7935 14.1582 71.8193 14.1753 71.8418 14.1978C71.8643 14.2202 71.8813 14.2461 71.8931 14.2754C71.9058 14.3047 71.9121 14.3355 71.9121 14.3677C71.9121 14.3999 71.9058 14.4307 71.8931 14.46C71.8813 14.4893 71.8643 14.5142 71.8418 14.5347C71.8193 14.5562 71.7935 14.5733 71.7642 14.586C71.7349 14.5977 71.7041 14.6035 71.6719 14.6035ZM71.4683 16.2837C71.3726 16.2837 71.2969 16.2554 71.2412 16.1988C71.1787 16.1363 71.1475 16.045 71.1475 15.9248C71.1475 15.8682 71.1553 15.8028 71.1709 15.7285L71.3745 14.7661H71.8066L71.5913 15.7857C71.5835 15.8111 71.5796 15.8433 71.5796 15.8824C71.5796 15.9234 71.5889 15.9522 71.6074 15.9688C71.627 15.9854 71.6582 15.9937 71.7012 15.9937C71.7305 15.9937 71.7588 15.9873 71.7861 15.9746C71.8145 15.961 71.8403 15.9424 71.8638 15.919C71.9116 15.8711 71.9478 15.8076 71.9722 15.7285H72.0981C72.0444 15.8799 71.9771 16.0005 71.896 16.0904C71.8276 16.1636 71.7505 16.2163 71.6646 16.2486C71.6021 16.272 71.5366 16.2837 71.4683 16.2837ZM72.3149 16.2837C72.2427 16.2837 72.1787 16.273 72.123 16.2515C72.0674 16.229 72.0205 16.1983 71.9824 16.1592C71.9473 16.1231 71.9209 16.083 71.9033 16.0391C71.8857 15.9942 71.877 15.9478 71.877 15.8999C71.877 15.8345 71.8936 15.7754 71.9268 15.7227C71.9561 15.6758 71.9927 15.6421 72.0366 15.6216C72.1147 15.4829 72.1826 15.3423 72.2402 15.1997C72.2979 15.0572 72.353 14.9014 72.4058 14.7325L72.8496 14.6739C72.8613 14.9278 72.8721 15.1226 72.8818 15.2583C72.8916 15.398 72.8999 15.5005 72.9067 15.5659C72.9126 15.6421 72.9155 15.7085 72.9155 15.7652C72.9155 15.8159 72.9116 15.854 72.9038 15.8794C72.9937 15.8267 73.0654 15.7764 73.1191 15.7285H73.2451C73.1738 15.8116 73.1001 15.8828 73.0239 15.9424C72.9487 16.002 72.8696 16.0557 72.7866 16.1035C72.7271 16.166 72.6523 16.2124 72.5625 16.2427C72.4844 16.2701 72.4019 16.2837 72.3149 16.2837ZM72.2197 16.0464C72.2949 16.0464 72.355 16.0259 72.3999 15.9849C72.4536 15.9361 72.4805 15.8638 72.4805 15.7681C72.4805 15.7281 72.478 15.6778 72.4731 15.6172L72.4658 15.5279C72.457 15.4507 72.4482 15.3614 72.4395 15.2598L72.4233 15.0576C72.395 15.1485 72.3613 15.2388 72.3223 15.3286C72.2832 15.4175 72.2358 15.5161 72.1802 15.6245C72.2261 15.6499 72.249 15.6846 72.249 15.7285C72.249 15.7676 72.2373 15.8013 72.2139 15.8296C72.1885 15.8609 72.1562 15.8765 72.1172 15.8765C72.0977 15.8765 72.0811 15.8741 72.0674 15.8692C72.0547 15.8633 72.0444 15.8526 72.0366 15.8369C72.0366 15.9092 72.0508 15.9624 72.0791 15.9966C72.1074 16.0298 72.1543 16.0464 72.2197 16.0464ZM73.4795 16.2837C73.3652 16.2837 73.2729 16.2481 73.2026 16.1768C73.1206 16.0928 73.0796 15.9678 73.0796 15.8018C73.0796 15.7315 73.0869 15.6573 73.1016 15.5791C73.1152 15.501 73.1357 15.4239 73.1631 15.3477C73.2256 15.1758 73.311 15.0371 73.4194 14.9317C73.5444 14.8116 73.6885 14.7515 73.8516 14.7515C73.9326 14.7515 73.9932 14.7657 74.0332 14.794C74.0742 14.8213 74.0947 14.8579 74.0947 14.9038V14.9258L74.127 14.7661H74.5591L74.3438 15.7857C74.335 15.815 74.3306 15.8472 74.3306 15.8824C74.3306 15.9683 74.3716 16.0113 74.4536 16.0113C74.5083 16.0113 74.5581 15.9834 74.603 15.9278C74.6411 15.8809 74.6724 15.8145 74.6968 15.7285H74.8228C74.769 15.8809 74.7041 16.0015 74.6279 16.0904C74.5635 16.1636 74.4907 16.2163 74.4097 16.2486C74.3501 16.272 74.2871 16.2837 74.2207 16.2837C74.1357 16.2837 74.0679 16.2608 74.0171 16.2149C73.9673 16.168 73.937 16.0992 73.9263 16.0083C73.8696 16.0884 73.8101 16.1509 73.7476 16.1958C73.6675 16.2544 73.5781 16.2837 73.4795 16.2837ZM73.6743 15.9937C73.6968 15.9937 73.7202 15.9878 73.7446 15.9761C73.77 15.9644 73.7944 15.9478 73.8179 15.9263C73.8706 15.8755 73.9058 15.8096 73.9233 15.7285L74.0669 15.0518C74.0669 15.042 74.0645 15.0308 74.0596 15.0181C74.0557 15.0044 74.0498 14.9917 74.042 14.98C74.0186 14.9517 73.9858 14.9375 73.9438 14.9375C73.9038 14.9375 73.8647 14.9507 73.8267 14.9771C73.7896 15.0034 73.7544 15.0401 73.7212 15.0869C73.6626 15.1719 73.6143 15.2827 73.5762 15.4195C73.5586 15.48 73.5454 15.5401 73.5366 15.5996C73.5278 15.6582 73.5234 15.7115 73.5234 15.7593C73.5234 15.8589 73.542 15.9263 73.5791 15.9615C73.5918 15.9751 73.606 15.9839 73.6216 15.9878C73.6372 15.9917 73.6548 15.9937 73.6743 15.9937Z" fill="#333333"/>
</svg>
